<svg width="180" height="86" viewBox="0 0 180 86" fill="none" xmlns="http://www.w3.org/2000/svg">
<g clip-path="url(#clip0_3485_378)">
<path d="M27.3513 9.05273H37.8787V11.0125H33.7337V22.0602H31.4617V11.0125H27.334L27.3513 9.05273ZM37.4278 12.6428H39.3703V14.4639H39.4049C39.4743 14.2037 39.5957 13.9609 39.7692 13.7181C39.9426 13.4753 40.1507 13.2498 40.4109 13.059C40.6537 12.8509 40.9312 12.6948 41.2433 12.5734C41.5382 12.452 41.8504 12.3827 42.1625 12.3827C42.4053 12.3827 42.5788 12.4 42.6655 12.4C42.7522 12.4173 42.8563 12.4347 42.943 12.4347V14.4292C42.8042 14.3945 42.6481 14.3771 42.4921 14.3598C42.336 14.3425 42.1972 14.3251 42.0411 14.3251C41.6943 14.3251 41.3647 14.3945 41.0526 14.5332C40.7404 14.672 40.4802 14.8801 40.2374 15.1402C40.012 15.4177 39.8212 15.7473 39.6824 16.1462C39.5437 16.5451 39.4743 17.0133 39.4743 17.5336V22.0082H37.3931L37.4278 12.6428ZM52.4818 22.0602H50.4353V20.7421H50.4006C50.1405 21.2278 49.7589 21.592 49.256 21.8868C48.753 22.1816 48.2327 22.3204 47.7124 22.3204C46.481 22.3204 45.5792 22.0255 45.0242 21.4012C44.4692 20.7942 44.1917 19.8576 44.1917 18.6263V12.6428H46.2729V18.4181C46.2729 19.2506 46.429 19.8403 46.7585 20.1698C47.0707 20.5167 47.5216 20.6901 48.094 20.6901C48.5275 20.6901 48.8917 20.6207 49.1866 20.482C49.4814 20.3432 49.7242 20.1698 49.8977 19.9443C50.0884 19.7189 50.2098 19.4414 50.2966 19.1292C50.3833 18.817 50.418 18.4702 50.418 18.106V12.6428H52.4992V22.0602H52.4818ZM56.0199 19.0425C56.0892 19.6495 56.3147 20.0658 56.7136 20.3259C57.1125 20.5687 57.5981 20.6901 58.1531 20.6901C58.3439 20.6901 58.5693 20.6728 58.8121 20.6381C59.0549 20.6034 59.2977 20.5514 59.5059 20.4646C59.7313 20.3779 59.9048 20.2565 60.0435 20.0831C60.1823 19.9097 60.2516 19.7015 60.2343 19.4414C60.2169 19.1812 60.1302 18.9558 59.9394 18.7823C59.7487 18.6089 59.5232 18.4875 59.2457 18.3661C58.9682 18.262 58.6387 18.1753 58.2745 18.106C57.9103 18.0366 57.5461 17.9499 57.1645 17.8631C56.783 17.7764 56.4014 17.6724 56.0372 17.551C55.673 17.4296 55.3608 17.2735 55.066 17.048C54.7885 16.8399 54.5457 16.5797 54.3896 16.2502C54.2162 15.9207 54.1294 15.5391 54.1294 15.0535C54.1294 14.5332 54.2508 14.117 54.511 13.7701C54.7538 13.4233 55.0833 13.1458 55.4649 12.9376C55.8464 12.7295 56.28 12.5734 56.7483 12.4867C57.2165 12.4 57.6675 12.3653 58.0837 12.3653C58.5693 12.3653 59.0376 12.4173 59.4712 12.5214C59.9048 12.6255 60.321 12.7816 60.6679 13.0244C61.0321 13.2498 61.3269 13.562 61.5524 13.9262C61.7952 14.2904 61.9339 14.7413 62.0033 15.2616H59.8354C59.7313 14.7587 59.5059 14.4292 59.159 14.2557C58.7948 14.0823 58.3959 13.9956 57.9276 13.9956C57.7889 13.9956 57.5981 14.0129 57.4073 14.0303C57.1992 14.065 57.0258 14.0996 56.835 14.169C56.6616 14.2384 56.5055 14.3425 56.3841 14.4639C56.2627 14.5853 56.1933 14.7587 56.1933 14.9668C56.1933 15.227 56.28 15.4177 56.4534 15.5738C56.6269 15.7299 56.8523 15.8513 57.1472 15.9727C57.4247 16.0768 57.7542 16.1635 58.1184 16.2329C58.4826 16.3022 58.8642 16.389 59.2457 16.4757C59.6273 16.5624 59.9915 16.6665 60.3557 16.7879C60.7199 16.9093 61.0494 17.0654 61.3269 17.2908C61.6044 17.4989 61.8472 17.7591 62.0207 18.0713C62.1941 18.3834 62.2808 18.7823 62.2808 19.2333C62.2808 19.7883 62.1594 20.2565 61.8992 20.6554C61.6391 21.037 61.3096 21.3665 60.9107 21.6093C60.5118 21.8521 60.0435 22.0255 59.5579 22.147C59.0549 22.251 58.5693 22.3204 58.0837 22.3204C57.494 22.3204 56.9391 22.251 56.4361 22.1123C55.9331 21.9735 55.4822 21.7654 55.118 21.5052C54.7538 21.2278 54.459 20.8982 54.2508 20.482C54.0427 20.0831 53.9213 19.5975 53.904 19.0252H56.0025V19.0425H56.0199ZM62.8705 12.6428H64.4487V9.7985H66.5299V12.6255H68.403V14.169H66.5299V19.1986C66.5299 19.424 66.5473 19.5975 66.5646 19.7709C66.5819 19.927 66.634 20.0658 66.686 20.1698C66.7554 20.2739 66.8594 20.3606 66.9808 20.4126C67.1196 20.4646 67.293 20.4993 67.5358 20.4993C67.6746 20.4993 67.8307 20.4993 67.9694 20.482C68.1082 20.4646 68.2642 20.4473 68.403 20.4126V22.0255C68.1775 22.0602 67.9521 22.0776 67.7266 22.0949C67.5011 22.1296 67.293 22.1296 67.0502 22.1296C66.4952 22.1296 66.0616 22.0776 65.7321 21.9735C65.4026 21.8695 65.1424 21.7134 64.9517 21.5226C64.7609 21.3145 64.6395 21.0717 64.5701 20.7768C64.5007 20.482 64.4661 20.1178 64.4487 19.7362V14.1864H62.8705V12.6081V12.6428ZM69.8598 12.6428H71.8196V13.9262H71.8543C72.1492 13.3712 72.548 12.9897 73.0684 12.7469C73.5886 12.5041 74.1436 12.3827 74.768 12.3827C75.5138 12.3827 76.1555 12.5041 76.7105 12.7816C77.2654 13.0417 77.7164 13.3886 78.0806 13.8568C78.4448 14.3078 78.7223 14.8454 78.8957 15.4524C79.0691 16.0594 79.1732 16.7185 79.1732 17.3949C79.1732 18.0713 79.0865 18.6436 78.9304 19.2333C78.757 19.8229 78.5142 20.3606 78.1846 20.8115C77.8551 21.2624 77.4389 21.6267 76.9186 21.9041C76.3983 22.1816 75.8086 22.3204 75.1149 22.3204C74.82 22.3204 74.5079 22.2857 74.213 22.2337C73.9182 22.1816 73.6233 22.0949 73.3458 21.9735C73.0684 21.8521 72.8082 21.696 72.5827 21.5052C72.3399 21.3145 72.1492 21.089 71.9931 20.8462H71.9584V25.5462H69.8772V12.6428H69.8598ZM77.1267 17.3602C77.1267 16.944 77.0747 16.5277 76.9533 16.1288C76.8492 15.7299 76.6758 15.3831 76.4503 15.0709C76.2248 14.7587 75.9473 14.5159 75.6352 14.3251C75.3056 14.1343 74.9241 14.0476 74.5079 14.0476C73.6407 14.0476 72.9816 14.3425 72.5307 14.9495C72.0971 15.5565 71.8717 16.3716 71.8717 17.3775C71.8717 17.8631 71.9237 18.2967 72.0451 18.6956C72.1665 19.0945 72.3226 19.4414 72.5654 19.7362C72.7909 20.0311 73.0684 20.2565 73.3979 20.43C73.7274 20.6034 74.0916 20.6901 74.5252 20.6901C75.0108 20.6901 75.3924 20.5861 75.7219 20.3953C76.0514 20.2045 76.3116 19.9443 76.537 19.6495C76.7451 19.3373 76.9012 18.9905 76.9879 18.5916C77.0747 18.1753 77.1267 17.7764 77.1267 17.3602ZM80.7861 9.05273H82.8673V11.0125H80.7861V9.05273ZM80.7861 12.6428H82.8673V22.0602H80.7861V12.6428ZM84.7231 9.05273H86.8043V22.0602H84.7231V9.05273ZM93.1519 22.3204C92.4062 22.3204 91.7298 22.199 91.1401 21.9388C90.5504 21.6787 90.0648 21.3492 89.6486 20.9156C89.2497 20.482 88.9375 19.9443 88.7294 19.3373C88.5213 18.7303 88.3999 18.0539 88.3999 17.3428C88.3999 16.6318 88.5039 15.9727 88.7294 15.3657C88.9375 14.7587 89.2497 14.2384 89.6486 13.7875C90.0475 13.3539 90.5504 13.007 91.1401 12.7642C91.7298 12.5214 92.4062 12.3827 93.1519 12.3827C93.8977 12.3827 94.5741 12.5041 95.1638 12.7642C95.7534 13.007 96.239 13.3539 96.6553 13.7875C97.0542 14.221 97.3664 14.7587 97.5745 15.3657C97.7826 15.9727 97.904 16.6318 97.904 17.3428C97.904 18.0539 97.7999 18.7303 97.5745 19.3373C97.349 19.9443 97.0542 20.4646 96.6553 20.9156C96.2564 21.3492 95.7534 21.696 95.1638 21.9388C94.5741 22.1816 93.915 22.3204 93.1519 22.3204ZM93.1519 20.6728C93.6029 20.6728 94.0191 20.5687 94.3486 20.3779C94.6955 20.1872 94.9556 19.927 95.1811 19.6148C95.4066 19.3026 95.5627 18.9384 95.6667 18.5569C95.7708 18.158 95.8228 17.7591 95.8228 17.3428C95.8228 16.9266 95.7708 16.5451 95.6667 16.1462C95.5627 15.7473 95.4066 15.4004 95.1811 15.0882C94.9556 14.776 94.6781 14.5332 94.3486 14.3425C94.0018 14.1517 93.6029 14.0476 93.1519 14.0476C92.701 14.0476 92.2848 14.1517 91.9552 14.3425C91.6084 14.5332 91.3482 14.7934 91.1228 15.0882C90.8973 15.4004 90.7412 15.7473 90.6371 16.1462C90.5331 16.5451 90.4811 16.944 90.4811 17.3428C90.4811 17.7417 90.5331 18.158 90.6371 18.5569C90.7412 18.9558 90.8973 19.3026 91.1228 19.6148C91.3482 19.927 91.6257 20.1872 91.9552 20.3779C92.3021 20.5861 92.701 20.6728 93.1519 20.6728ZM98.5284 12.6428H100.107V9.7985H102.188V12.6255H104.061V14.169H102.188V19.1986C102.188 19.424 102.205 19.5975 102.223 19.7709C102.24 19.927 102.292 20.0658 102.344 20.1698C102.413 20.2739 102.517 20.3606 102.639 20.4126C102.777 20.4646 102.951 20.4993 103.194 20.4993C103.332 20.4993 103.489 20.4993 103.627 20.482C103.766 20.4646 103.922 20.4473 104.061 20.4126V22.0255C103.835 22.0602 103.61 22.0776 103.384 22.0949C103.159 22.1296 102.951 22.1296 102.708 22.1296C102.153 22.1296 101.72 22.0776 101.39 21.9735C101.06 21.8695 100.8 21.7134 100.61 21.5226C100.419 21.3145 100.297 21.0717 100.228 20.7768C100.159 20.482 100.124 20.1178 100.107 19.7362V14.1864H98.5284V12.6081V12.6428Z" fill="white"/>
<path d="M24.9224 9.05273H15.4009L12.4699 -0.000488281L9.52149 9.05273L0 9.03539L7.70044 14.6373L4.75207 23.6905L12.4525 18.0886L20.153 23.6905L17.2219 14.6373L24.9224 9.05273Z" fill="#00B67A"/>
<path d="M17.8818 16.6842L17.2228 14.6377L12.4707 18.089L17.8818 16.6842Z" fill="#005128"/>
</g>
<g clip-path="url(#clip1_3485_378)">
<path d="M33.7487 33H0L0 66.5847H33.7487V33Z" fill="#00B67A"/>
<path d="M70.3112 33H36.5625V66.5847H70.3112V33Z" fill="#00B67A"/>
<path d="M106.878 33H73.1289V66.5847H106.878V33Z" fill="#00B67A"/>
<path d="M143.434 33H109.686V66.5847H143.434V33Z" fill="#00B67A"/>
<path d="M180.001 33H146.252V66.5847H180.001V33Z" fill="#DCDCE6"/>
<path d="M163.159 33.0024H146.223V66.8761H163.159V33.0024Z" fill="#00B67A"/>
<path d="M16.8765 55.6352L22.0091 54.3408L24.1536 60.9178L16.8765 55.6352ZM28.6885 47.1341H19.6537L16.8765 38.668L14.0993 47.1341H5.06445L12.3767 52.3817L9.59943 60.8479L16.9117 55.6003L21.4115 52.3817L28.6885 47.1341Z" fill="white"/>
<path d="M53.4409 55.6367L58.5736 54.3423L60.718 60.9193L53.4409 55.6367ZM65.253 47.1356H56.2182L53.4409 38.6694L50.6637 47.1356H41.6289L48.9411 52.3832L46.1639 60.8493L53.4761 55.6017L57.9759 52.3832L65.253 47.1356Z" fill="white"/>
<path d="M89.9995 55.6352L95.1322 54.3408L97.2766 60.9178L89.9995 55.6352ZM101.812 47.1341H92.7768L89.9995 38.668L87.2223 47.1341H78.1875L85.4997 52.3817L82.7225 60.8479L90.0347 55.6003L94.5345 52.3817L101.812 47.1341Z" fill="white"/>
<path d="M126.562 55.6367L131.695 54.3423L133.839 60.9193L126.562 55.6367ZM138.374 47.1356H129.339L126.562 38.6694L123.785 47.1356H114.75L122.062 52.3832L119.285 60.8493L126.597 55.6017L131.097 52.3832L138.374 47.1356Z" fill="white"/>
<path d="M163.119 55.6352L168.251 54.3408L170.396 60.9178L163.119 55.6352ZM174.931 47.1341H165.896L163.119 38.668L160.341 47.1341H151.307L158.619 52.3817L155.842 60.8479L163.154 55.6003L167.654 52.3817L174.931 47.1341Z" fill="white"/>
</g>
<path d="M0.780632 76.2078H3.47542C3.94594 76.2078 4.35942 76.2934 4.71587 76.4645C5.07233 76.6356 5.3468 76.878 5.53928 77.1917C5.73177 77.5053 5.82801 77.8689 5.82801 78.2824C5.82801 78.7387 5.70325 79.1379 5.45373 79.4801C5.21134 79.8151 4.87271 80.0575 4.43784 80.2072L6.59795 83.6934H5.45373L3.43264 80.357H1.75375V83.6934H0.780632V76.2078ZM3.36848 79.4801C3.83187 79.4801 4.19189 79.3767 4.44853 79.17C4.70518 78.9561 4.8335 78.6602 4.8335 78.2824C4.8335 77.9046 4.70518 77.6087 4.44853 77.3948C4.19189 77.181 3.83187 77.074 3.36848 77.074H1.75375V79.4801H3.36848ZM10.701 80.1859C10.701 79.8151 10.5798 79.5229 10.3374 79.309C10.1022 79.088 9.78493 78.9775 9.3857 78.9775C9.01499 78.9775 8.70844 79.0809 8.46605 79.2876C8.22366 79.4943 8.08465 79.7795 8.049 80.1431L7.20421 79.9827C7.28263 79.448 7.52145 79.0203 7.92068 78.6995C8.32703 78.3786 8.81537 78.2182 9.3857 78.2182C10.0487 78.2182 10.5834 78.4 10.9897 78.7636C11.3961 79.1272 11.5993 79.6191 11.5993 80.2393V83.6934H10.701V82.7737C10.5442 83.0803 10.3018 83.3262 9.97385 83.5116C9.65304 83.6898 9.29659 83.7789 8.90449 83.7789C8.36981 83.7789 7.93137 83.6328 7.58918 83.3405C7.25411 83.0411 7.08658 82.6561 7.08658 82.1856C7.08658 81.6723 7.29688 81.2695 7.7175 80.9772C8.14524 80.6849 8.79042 80.496 9.65304 80.4104L10.701 80.2928V80.1859ZM7.99553 82.1749C7.99553 82.4244 8.09177 82.6311 8.28426 82.7951C8.48387 82.9519 8.73695 83.0304 9.0435 83.0304C9.56393 83.0304 9.97028 82.87 10.2626 82.5491C10.5549 82.2283 10.701 81.797 10.701 81.2552V80.9986L9.65304 81.1162C9.11123 81.1732 8.69774 81.2944 8.41258 81.4798C8.13455 81.658 7.99553 81.8897 7.99553 82.1749ZM15.9074 83.6506C15.6722 83.7361 15.3906 83.7789 15.0626 83.7789C14.5779 83.7789 14.1893 83.6399 13.897 83.3619C13.6119 83.0767 13.4693 82.649 13.4693 82.0786V79.1058H12.4641V78.3038H13.4693V76.6677H14.3783V78.3038H15.8219V79.1058H14.3783V82.1107C14.3783 82.3887 14.4495 82.599 14.5921 82.7416C14.7347 82.8842 14.9272 82.9555 15.1696 82.9555C15.4334 82.9555 15.6579 82.9092 15.8433 82.8165L15.9074 83.6506ZM16.518 80.9986C16.518 80.4853 16.6213 80.0183 16.8281 79.5977C17.0419 79.17 17.3449 78.8349 17.737 78.5925C18.1363 78.343 18.5996 78.2182 19.1272 78.2182C19.6405 78.2182 20.0932 78.3323 20.4853 78.5604C20.8774 78.7814 21.1768 79.088 21.3835 79.4801C21.5974 79.8651 21.7043 80.2892 21.7043 80.7526C21.7043 80.9023 21.6972 81.0413 21.683 81.1697H17.4269C17.4554 81.7115 17.6265 82.1499 17.9402 82.485C18.261 82.8129 18.6638 82.9769 19.1486 82.9769C19.5621 82.9769 19.9043 82.8842 20.1752 82.6989C20.4461 82.5135 20.6207 82.2533 20.6992 81.9182L21.5546 82.1214C21.4192 82.6418 21.1376 83.0482 20.7098 83.3405C20.2892 83.6328 19.7688 83.7789 19.1486 83.7789C18.621 83.7789 18.1576 83.6577 17.7584 83.4153C17.3663 83.1658 17.0598 82.8307 16.8388 82.4101C16.6249 81.9824 16.518 81.5119 16.518 80.9986ZM20.7419 80.4104C20.6992 79.9827 20.5352 79.6369 20.25 79.3731C19.9649 79.1094 19.5906 78.9775 19.1272 78.9775C18.7066 78.9775 18.3501 79.1058 18.0578 79.3625C17.7655 79.612 17.5731 79.9613 17.4804 80.4104H20.7419ZM25.1587 83.7789C24.6169 83.7789 24.1499 83.6613 23.7578 83.426C23.3657 83.1836 23.0663 82.8521 22.8596 82.4315C22.66 82.0109 22.5602 81.5333 22.5602 80.9986C22.5602 80.4639 22.66 79.9862 22.8596 79.5656C23.0663 79.145 23.3622 78.8171 23.7471 78.5818C24.1392 78.3394 24.6062 78.2182 25.148 78.2182C25.5045 78.2182 25.8431 78.2967 26.1639 78.4535C26.4918 78.6103 26.7413 78.8171 26.9124 79.0737V76.1223H27.8214V83.6934H26.9124V82.9127C26.7913 83.1622 26.5667 83.369 26.2387 83.533C25.9108 83.6969 25.5508 83.7789 25.1587 83.7789ZM23.4905 80.9986C23.4905 81.5903 23.6509 82.0679 23.9717 82.4315C24.2925 82.788 24.7167 82.9662 25.2442 82.9662C25.7718 82.9662 26.196 82.788 26.5168 82.4315C26.8376 82.0679 26.998 81.5903 26.998 80.9986C26.998 80.4069 26.8376 79.9328 26.5168 79.5763C26.196 79.2127 25.7718 79.031 25.2442 79.031C24.7167 79.031 24.2925 79.2127 23.9717 79.5763C23.6509 79.9328 23.4905 80.4069 23.4905 80.9986ZM35.0609 82.2604H31.3716V80.8168L34.954 76.2078H36.7505V80.8168H37.6488V82.2604H36.7505V83.6934H35.0609V82.2604ZM35.0609 80.8168V78.2503L33.104 80.8168H35.0609ZM39.4711 83.7789C39.2073 83.7789 38.9863 83.6934 38.8081 83.5223C38.6299 83.344 38.5408 83.1266 38.5408 82.87C38.5408 82.6062 38.6299 82.3887 38.8081 82.2176C38.9863 82.0394 39.2073 81.9503 39.4711 81.9503C39.7349 81.9503 39.9559 82.0394 40.1341 82.2176C40.3123 82.3887 40.4014 82.6062 40.4014 82.87C40.4014 83.1266 40.3123 83.344 40.1341 83.5223C39.9559 83.6934 39.7349 83.7789 39.4711 83.7789ZM44.4059 83.7789C43.8855 83.7789 43.4186 83.6862 43.0051 83.5009C42.5916 83.3155 42.2565 83.0553 41.9999 82.7202C41.7432 82.3852 41.5935 81.9966 41.5507 81.5546L43.0799 81.298C43.137 81.6117 43.2867 81.8612 43.5291 82.0465C43.7714 82.2319 44.0673 82.3246 44.4166 82.3246C44.7731 82.3246 45.0618 82.2248 45.2828 82.0252C45.5109 81.8255 45.625 81.5618 45.625 81.2338C45.625 80.9059 45.5145 80.6421 45.2935 80.4425C45.0796 80.2429 44.7945 80.1431 44.438 80.1431C44.3097 80.1431 44.1635 80.168 43.9996 80.2179C43.8427 80.2607 43.7037 80.3213 43.5825 80.3997L42.9409 79.2876L44.8337 77.6515H41.7646V76.2078H46.8227V77.5552L45.0048 79.0844C45.461 79.0773 45.8638 79.1628 46.2131 79.3411C46.5625 79.5193 46.8334 79.7759 47.0259 80.111C47.2183 80.4389 47.3146 80.831 47.3146 81.2873C47.3146 81.7792 47.1934 82.2141 46.951 82.5919C46.7086 82.9698 46.3664 83.2621 45.9244 83.4688C45.4895 83.6755 44.9834 83.7789 44.4059 83.7789ZM53.5516 83.7789C53.024 83.7789 52.55 83.6613 52.1293 83.426C51.7159 83.1836 51.3915 82.8521 51.1562 82.4315C50.9281 82.0109 50.814 81.5333 50.814 80.9986C50.814 80.4639 50.9281 79.9862 51.1562 79.5656C51.3915 79.145 51.7159 78.8171 52.1293 78.5818C52.55 78.3394 53.024 78.2182 53.5516 78.2182C54.0791 78.2182 54.5497 78.3394 54.9631 78.5818C55.3838 78.8171 55.7117 79.145 55.947 79.5656C56.1822 79.9862 56.2998 80.4639 56.2998 80.9986C56.2998 81.5333 56.1822 82.0109 55.947 82.4315C55.7117 82.8521 55.3838 83.1836 54.9631 83.426C54.5497 83.6613 54.0791 83.7789 53.5516 83.7789ZM51.7444 80.9986C51.7444 81.576 51.9119 82.0501 52.247 82.4208C52.582 82.7844 53.0169 82.9662 53.5516 82.9662C54.0863 82.9662 54.5211 82.7844 54.8562 82.4208C55.1913 82.0501 55.3588 81.576 55.3588 80.9986C55.3588 80.4211 55.1913 79.9506 54.8562 79.587C54.5211 79.2163 54.0863 79.031 53.5516 79.031C53.0169 79.031 52.582 79.2163 52.247 79.587C51.9119 79.9506 51.7444 80.4211 51.7444 80.9986ZM62.1425 83.6934H61.2336V82.6775C61.0411 83.0125 60.7844 83.2799 60.4636 83.4795C60.1428 83.6791 59.7828 83.7789 59.3836 83.7789C58.8204 83.7789 58.357 83.6042 57.9934 83.2549C57.637 82.9056 57.4587 82.4458 57.4587 81.8754V78.3038H58.3677V81.7044C58.3677 82.0751 58.4782 82.378 58.6992 82.6133C58.9202 82.8414 59.2161 82.9555 59.5868 82.9555C60.0929 82.9555 60.4922 82.7523 60.7844 82.346C61.0839 81.9325 61.2336 81.3728 61.2336 80.6671V78.3038H62.1425V83.6934ZM66.4817 83.6506C66.2464 83.7361 65.9648 83.7789 65.6369 83.7789C65.1521 83.7789 64.7636 83.6399 64.4713 83.3619C64.1861 83.0767 64.0436 82.649 64.0436 82.0786V79.1058H63.0384V78.3038H64.0436V76.6677H64.9525V78.3038H66.3961V79.1058H64.9525V82.1107C64.9525 82.3887 65.0238 82.599 65.1664 82.7416C65.309 82.8842 65.5014 82.9555 65.7438 82.9555C66.0076 82.9555 66.2322 82.9092 66.4175 82.8165L66.4817 83.6506ZM72.5407 83.7789C72.0131 83.7789 71.539 83.6613 71.1184 83.426C70.7049 83.1836 70.3806 82.8521 70.1453 82.4315C69.9172 82.0109 69.8031 81.5333 69.8031 80.9986C69.8031 80.4639 69.9172 79.9862 70.1453 79.5656C70.3806 79.145 70.7049 78.8171 71.1184 78.5818C71.539 78.3394 72.0131 78.2182 72.5407 78.2182C73.0682 78.2182 73.5387 78.3394 73.9522 78.5818C74.3728 78.8171 74.7008 79.145 74.936 79.5656C75.1713 79.9862 75.2889 80.4639 75.2889 80.9986C75.2889 81.5333 75.1713 82.0109 74.936 82.4315C74.7008 82.8521 74.3728 83.1836 73.9522 83.426C73.5387 83.6613 73.0682 83.7789 72.5407 83.7789ZM70.7335 80.9986C70.7335 81.576 70.901 82.0501 71.2361 82.4208C71.5711 82.7844 72.006 82.9662 72.5407 82.9662C73.0753 82.9662 73.5102 82.7844 73.8453 82.4208C74.1804 82.0501 74.3479 81.576 74.3479 80.9986C74.3479 80.4211 74.1804 79.9506 73.8453 79.587C73.5102 79.2163 73.0753 79.031 72.5407 79.031C72.006 79.031 71.5711 79.2163 71.2361 79.587C70.901 79.9506 70.7335 80.4211 70.7335 80.9986ZM76.8363 79.1058H75.9166V78.3038H76.8363V77.8012C76.8363 77.2237 76.9824 76.7782 77.2747 76.4645C77.567 76.1437 77.952 75.9833 78.4296 75.9833C78.7148 75.9833 78.9572 76.0118 79.1568 76.0688L79.114 76.8815C78.9287 76.8103 78.7398 76.7746 78.5473 76.7746C78.3049 76.7746 78.1088 76.8637 77.9591 77.0419C77.8165 77.213 77.7453 77.4412 77.7453 77.7263V78.3038H79.1247V79.1058H77.7453V83.6934H76.8363V79.1058ZM85.516 83.7789C84.7745 83.7789 84.1472 83.59 83.6339 83.2121C83.1277 82.8343 82.8212 82.3281 82.7142 81.6937L84.2327 81.4156C84.304 81.6937 84.4466 81.9147 84.6605 82.0786C84.8743 82.2426 85.1381 82.3246 85.4518 82.3246C85.8011 82.3246 86.0792 82.2212 86.2859 82.0145C86.4926 81.8006 86.596 81.519 86.596 81.1697C86.596 80.8203 86.4855 80.5423 86.2645 80.3356C86.0435 80.1288 85.7477 80.0255 85.3769 80.0255C85.106 80.0255 84.8672 80.0825 84.6605 80.1966C84.4537 80.3035 84.2684 80.471 84.1044 80.6992L82.8746 80.4425L83.5163 76.2078H87.7188V77.6515H84.746L84.4894 79.2127C84.6533 79.063 84.8565 78.9454 85.0989 78.8599C85.3413 78.7672 85.5872 78.7208 85.8368 78.7208C86.3144 78.7208 86.7386 78.8242 87.1093 79.031C87.48 79.2377 87.7687 79.5264 87.9755 79.8971C88.1822 80.2678 88.2856 80.692 88.2856 81.1697C88.2856 81.6901 88.1715 82.1464 87.9434 82.5385C87.7153 82.9305 87.3909 83.2371 86.9703 83.4581C86.5568 83.672 86.072 83.7789 85.516 83.7789Z" fill="white"/>
<defs>
<clipPath id="clip0_3485_378">
<rect width="104.06" height="25.5467" fill="white"/>
</clipPath>
<clipPath id="clip1_3485_378">
<rect width="180" height="33.75" fill="white" transform="translate(0 33.2676)"/>
</clipPath>
</defs>
</svg>
