<svg width="29" height="28" viewBox="0 0 29 28" fill="none" xmlns="http://www.w3.org/2000/svg">
<path fill-rule="evenodd" clip-rule="evenodd" d="M13.2784 2.35579C11.7835 2.63922 10.6075 3.70893 10.1527 5.19807C10.0441 5.55807 10.0304 5.67236 10.0304 6.28607C10.0304 6.89979 10.0441 7.01407 10.1527 7.37407C10.5732 8.75007 11.5378 9.71579 12.9127 10.1329C13.2658 10.2404 13.3961 10.2552 13.9778 10.2586C14.5367 10.2609 14.6967 10.2449 15.0018 10.1581C15.4087 10.0404 15.8064 9.87922 15.8064 9.83122C15.8064 9.81407 15.7424 9.6815 15.6647 9.53864C15.4524 9.1126 15.299 8.6597 15.2087 8.19236C15.1749 7.93929 15.1581 7.68425 15.1584 7.42893C15.1584 6.86207 15.2201 6.47122 15.3927 5.96607C15.6499 5.21194 16.0989 4.53768 16.6955 4.0095C16.8727 3.8575 17.0235 3.71922 17.0304 3.70207C17.051 3.65179 16.4932 3.14893 16.203 2.95693C15.8293 2.71341 15.4192 2.53093 14.9881 2.41636C14.523 2.29522 13.7424 2.26779 13.2784 2.35579ZM18.915 4.09407C18.5252 4.1775 17.859 4.5135 17.5424 4.78665C16.9584 5.2895 16.5127 6.00265 16.3778 6.65179C16.2923 7.16402 16.2919 7.68686 16.3767 8.19922C16.6064 9.28264 17.5332 10.3181 18.5847 10.6655C19.8635 11.0884 21.2201 10.7752 22.1264 9.84722C22.8224 9.13407 23.1195 8.41065 23.1195 7.42893C23.1195 6.82207 23.0281 6.4175 22.7801 5.92036C22.4495 5.24232 21.9016 4.69438 21.2235 4.36379C20.9899 4.24782 20.7447 4.15666 20.4921 4.09179C20.0944 4.00836 19.3092 4.0095 18.915 4.09407ZM4.0201 14.9044C3.86489 14.9446 3.71949 15.016 3.59276 15.1143C3.46604 15.2125 3.36063 15.3355 3.28295 15.4758L3.16638 15.7009L3.15381 19.9044C3.1401 24.6678 3.12524 24.4415 3.4841 24.8004C3.80181 25.1181 3.94467 25.1432 5.42924 25.1432C6.91267 25.1432 7.05667 25.1181 7.37324 24.8015C7.72981 24.4449 7.71495 24.6609 7.71495 20.0004C7.71495 15.3901 7.72524 15.5535 7.40181 15.2301C7.05895 14.8872 7.03038 14.8815 5.54353 14.8724C4.81438 14.8678 4.12867 14.8826 4.0201 14.9044ZM13.5892 14.9238C12.8224 15.0644 12.3138 15.2449 10.3321 16.0792L8.85781 16.6998V22.9489L9.80638 22.9501C10.3287 22.9501 10.9481 22.9706 11.1847 22.9958C11.4201 23.0209 12.4167 23.2358 13.4018 23.4735C15.4978 23.9809 15.7172 24.0198 16.355 23.9878C16.9058 23.9592 20.4224 23.2998 21.0624 23.1032C21.5768 22.9442 22.0622 22.7034 22.5001 22.3901C22.9275 22.0701 25.5618 19.5032 25.723 19.2495C26.2761 18.3809 25.9424 17.2289 25.0041 16.7672C24.7161 16.6255 24.6727 16.6175 24.1961 16.6175C23.7367 16.6175 23.6692 16.6289 23.4407 16.7444C23.3024 16.8129 22.5001 17.3752 21.6578 17.9935C20.8155 18.6118 20.0327 19.1649 19.9172 19.2244C19.571 19.4015 19.1972 19.4746 18.6567 19.4724L18.1607 19.4701L18.4464 19.3638C18.9412 19.1798 19.3218 18.7969 19.5115 18.2929C19.595 18.0701 19.6064 17.9592 19.5927 17.4861C19.5778 17.0095 19.5607 16.9032 19.4555 16.6781C19.3735 16.5115 19.2702 16.3563 19.1481 16.2164C18.8144 15.8552 18.5732 15.7638 16.8384 15.3398C14.8624 14.8575 14.3264 14.7889 13.5892 14.9238Z" fill="white"/>
</svg>
