<svg width="24" height="25" viewBox="0 0 24 25" fill="none" xmlns="http://www.w3.org/2000/svg">
<g clip-path="url(#clip0_3499_688)">
<path d="M19.344 17.5275C19.0718 18.1563 18.7495 18.7352 18.3762 19.2674C17.8673 19.9929 17.4507 20.4952 17.1296 20.774C16.6318 21.2318 16.0985 21.4662 15.5274 21.4796C15.1174 21.4796 14.623 21.3629 14.0475 21.1263C13.47 20.8907 12.9394 20.774 12.4542 20.774C11.9453 20.774 11.3996 20.8907 10.8158 21.1263C10.2311 21.3629 9.76016 21.4862 9.40006 21.4985C8.85242 21.5218 8.30654 21.2807 7.76167 20.774C7.41391 20.4707 6.97892 19.9507 6.45783 19.2141C5.89873 18.4274 5.43908 17.5152 5.07898 16.4753C4.69333 15.352 4.5 14.2642 4.5 13.2112C4.5 12.0049 4.76066 10.9644 5.28275 10.0926C5.69307 9.39227 6.23894 8.83984 6.92214 8.4343C7.60534 8.02875 8.34354 7.82209 9.13852 7.80887C9.5735 7.80887 10.1439 7.94342 10.8528 8.20786C11.5597 8.47319 12.0135 8.60774 12.2125 8.60774C12.3613 8.60774 12.8655 8.45041 13.7203 8.13675C14.5286 7.84587 15.2108 7.72543 15.7696 7.77287C17.284 7.89509 18.4218 8.49207 19.1784 9.5676C17.824 10.3882 17.154 11.5376 17.1674 13.0122C17.1796 14.1607 17.5962 15.1164 18.4151 15.8753C18.7862 16.2275 19.2006 16.4997 19.6617 16.693C19.5617 16.983 19.4562 17.2608 19.344 17.5275ZM15.8707 3.8601C15.8707 4.76031 15.5419 5.60083 14.8863 6.3788C14.0952 7.30367 13.1384 7.83809 12.1008 7.75376C12.0875 7.64577 12.0799 7.5321 12.0799 7.41266C12.0799 6.54847 12.4561 5.6236 13.1242 4.86741C13.4577 4.48453 13.8819 4.16617 14.3963 3.91221C14.9097 3.66204 15.3952 3.52369 15.8519 3.5C15.8652 3.62034 15.8707 3.74069 15.8707 3.86009V3.8601Z" fill="white"/>
</g>
<defs>
<clipPath id="clip0_3499_688">
<rect width="18" height="18" fill="white" transform="translate(3 3.5)"/>
</clipPath>
</defs>
</svg>
