<svg width="24" height="25" viewBox="0 0 24 25" fill="none" xmlns="http://www.w3.org/2000/svg">
<path d="M4.78516 21.5763C4.7727 21.5765 4.76034 21.5766 4.74805 21.5763C4.76034 21.5766 4.7727 21.5765 4.78516 21.5763ZM4.9082 21.5685C4.89182 21.5703 4.87553 21.5712 4.85938 21.5724C4.87553 21.5712 4.89182 21.5703 4.9082 21.5685ZM4.65625 21.5695C4.64975 21.5688 4.64317 21.5693 4.63672 21.5685C4.64317 21.5693 4.64975 21.5688 4.65625 21.5695ZM5.02441 21.5509C5.01236 21.5533 5.00023 21.5548 4.98828 21.5568C5.00023 21.5548 5.01236 21.5533 5.02441 21.5509ZM4.5293 21.55H4.52734C4.52466 21.5493 4.5222 21.5477 4.51953 21.547C4.52283 21.5478 4.52598 21.5492 4.5293 21.55ZM5.19531 21.506C5.17561 21.5122 5.15618 21.5183 5.13672 21.5236C5.15618 21.5183 5.17561 21.5122 5.19531 21.506ZM4.41406 21.5148C4.40758 21.5124 4.40094 21.5105 4.39453 21.508C4.40094 21.5105 4.40758 21.5124 4.41406 21.5148ZM5.31934 21.4621C5.30394 21.4681 5.28871 21.4741 5.27344 21.4796C5.28871 21.4741 5.30394 21.4681 5.31934 21.4621ZM4.30762 21.4679C4.3013 21.4646 4.29432 21.4626 4.28809 21.4591L4.28418 21.4562C4.2918 21.4605 4.29987 21.4639 4.30762 21.4679ZM5.58398 21.338C5.51459 21.3766 5.44539 21.4087 5.37793 21.4377C5.44539 21.4087 5.51459 21.3766 5.58398 21.338ZM4.2002 21.4015C4.18756 21.3924 4.17528 21.383 4.16309 21.3732C4.17528 21.383 4.18756 21.3924 4.2002 21.4015ZM4.07422 21.2921C4.05958 21.277 4.04505 21.2606 4.03125 21.2443C4.02409 21.2358 4.01767 21.2267 4.01074 21.2179C4.03108 21.2437 4.05191 21.269 4.07422 21.2921ZM3.99023 21.1925C3.97658 21.174 3.96383 21.1547 3.95117 21.1349C3.96383 21.1547 3.97658 21.174 3.99023 21.1925ZM3.95117 21.1349C3.94488 21.1251 3.93768 21.1158 3.93164 21.1056L3.92676 21.0959C3.93455 21.1092 3.94294 21.1221 3.95117 21.1349ZM3.91699 21.0783C3.90305 21.0534 3.88939 21.0278 3.87695 21.0011C3.88939 21.0278 3.90305 21.0534 3.91699 21.0783ZM3.86719 20.9787C3.85897 20.9601 3.85026 20.9414 3.84277 20.922C3.83935 20.9132 3.83725 20.9037 3.83398 20.8947C3.8444 20.9235 3.8552 20.9516 3.86719 20.9787ZM3.81152 20.8254C3.80537 20.8051 3.79838 20.7848 3.79297 20.7638C3.79838 20.7848 3.80537 20.8051 3.81152 20.8254ZM12.5234 12.422L4.25293 20.5207C4.24285 20.4528 4.23731 20.3768 4.2373 20.2921V4.55191C4.23731 4.46727 4.24281 4.3913 4.25293 4.3234L12.5234 12.422ZM19.5127 11.8332C19.9319 12.0665 20.0176 12.301 20.0176 12.424C20.0175 12.547 19.9316 12.7813 19.5127 13.0148L16.2158 14.8498L13.7393 12.423L16.2158 9.9982L19.5127 11.8332ZM5.06152 3.82047C5.14579 3.84842 5.23863 3.88961 5.34082 3.94645L15.373 9.52848L13.1318 11.7238L5.06152 3.82047ZM3.94922 3.71109C3.96256 3.69014 3.97675 3.6701 3.99121 3.65055C3.97675 3.6701 3.96256 3.69014 3.94922 3.71109ZM4.01172 3.6232C4.01966 3.6132 4.02789 3.60351 4.03613 3.59391C4.04843 3.57958 4.06127 3.56534 4.07422 3.55191C4.05258 3.57434 4.0315 3.59827 4.01172 3.6232ZM5.38184 3.41129C5.4481 3.43997 5.51586 3.47202 5.58398 3.50992C5.51586 3.47202 5.4481 3.43997 5.38184 3.41129ZM4.16602 3.47086C4.17511 3.46365 4.18402 3.45621 4.19336 3.44938C4.18402 3.45621 4.17511 3.46365 4.16602 3.47086ZM4.28906 3.38785C4.25585 3.40618 4.22403 3.42694 4.19336 3.44938C4.22403 3.42694 4.25585 3.40618 4.28906 3.38785ZM5.28125 3.37027C5.29 3.3735 5.29882 3.37665 5.30762 3.38004C5.29882 3.37665 5.29 3.3735 5.28125 3.37027ZM4.38477 3.34293C4.39827 3.33742 4.41194 3.3322 4.42578 3.32731C4.41194 3.3322 4.39827 3.33742 4.38477 3.34293ZM5.14941 3.32633C5.15858 3.32892 5.16754 3.33234 5.17676 3.33512C5.16754 3.33234 5.15858 3.32892 5.14941 3.32633ZM4.89648 3.2775C4.97809 3.28581 5.06258 3.3018 5.14941 3.32633C5.06258 3.3018 4.97809 3.28581 4.89648 3.2775ZM4.5166 3.30094C4.52017 3.30006 4.52376 3.29884 4.52734 3.29801L4.5293 3.29703C4.52498 3.29803 4.52089 3.29989 4.5166 3.30094ZM4.63574 3.27848C4.64512 3.27734 4.65457 3.27644 4.66406 3.27555C4.65457 3.27644 4.64512 3.27734 4.63574 3.27848ZM4.87207 3.27555C4.88017 3.27622 4.88832 3.27667 4.89648 3.2775C4.88832 3.27667 4.88017 3.27622 4.87207 3.27555ZM4.78418 3.27164C4.77139 3.27149 4.75872 3.27138 4.74609 3.27164C4.75872 3.27138 4.77139 3.27149 4.78418 3.27164Z" fill="white"/>
</svg>
