<svg width="25" height="25" viewBox="0 0 25 25" fill="none" xmlns="http://www.w3.org/2000/svg">
<path d="M22.3008 8.53516C22.3008 8.53516 22.1055 7.15625 21.5039 6.55078C20.7422 5.75391 19.8906 5.75 19.5 5.70312C16.7031 5.5 12.5039 5.5 12.5039 5.5H12.4961C12.4961 5.5 8.29688 5.5 5.5 5.70312C5.10938 5.75 4.25781 5.75391 3.49609 6.55078C2.89453 7.15625 2.70312 8.53516 2.70312 8.53516C2.70312 8.53516 2.5 10.1562 2.5 11.7734V13.2891C2.5 14.9062 2.69922 16.5273 2.69922 16.5273C2.69922 16.5273 2.89453 17.9062 3.49219 18.5117C4.25391 19.3086 5.25391 19.2812 5.69922 19.3672C7.30078 19.5195 12.5 19.5664 12.5 19.5664C12.5 19.5664 16.7031 19.5586 19.5 19.3594C19.8906 19.3125 20.7422 19.3086 21.5039 18.5117C22.1055 17.9062 22.3008 16.5273 22.3008 16.5273C22.3008 16.5273 22.5 14.9102 22.5 13.2891V11.7734C22.5 10.1562 22.3008 8.53516 22.3008 8.53516ZM10.4336 15.1289V9.50781L15.8359 12.3281L10.4336 15.1289Z" fill="white"/>
</svg>
