<svg width="25" height="25" viewBox="0 0 25 25" fill="none" xmlns="http://www.w3.org/2000/svg">
<path d="M12.502 4.30113C15.1744 4.30113 15.4908 4.31285 16.5418 4.35974C17.5186 4.40272 18.046 4.56681 18.3976 4.70356C18.8626 4.88328 19.1986 5.10207 19.5463 5.4498C19.8979 5.80143 20.1128 6.13352 20.2925 6.59846C20.4293 6.95009 20.5934 7.48144 20.6364 8.45429C20.6832 9.50918 20.695 9.82565 20.695 12.4941C20.695 15.1665 20.6832 15.483 20.6364 16.534C20.5934 17.5107 20.4293 18.0382 20.2925 18.3898C20.1128 18.8548 19.894 19.1908 19.5463 19.5385C19.1947 19.8901 18.8626 20.105 18.3976 20.2847C18.046 20.4215 17.5147 20.5856 16.5418 20.6285C15.4869 20.6754 15.1704 20.6871 12.502 20.6871C9.82956 20.6871 9.51309 20.6754 8.4621 20.6285C7.48535 20.5856 6.9579 20.4215 6.60627 20.2847C6.14134 20.105 5.80533 19.8862 5.45761 19.5385C5.10598 19.1869 4.89109 18.8548 4.71137 18.3898C4.57462 18.0382 4.41053 17.5068 4.36755 16.534C4.32067 15.4791 4.30895 15.1626 4.30895 12.4941C4.30895 9.82174 4.32067 9.50527 4.36755 8.45429C4.41053 7.47753 4.57462 6.95009 4.71137 6.59846C4.89109 6.13352 5.10988 5.79752 5.45761 5.4498C5.80924 5.09816 6.14134 4.88328 6.60627 4.70356C6.9579 4.56681 7.48926 4.40272 8.4621 4.35974C9.51309 4.31285 9.82956 4.30113 12.502 4.30113ZM12.502 2.5C9.78658 2.5 9.44667 2.51172 8.38006 2.55861C7.31735 2.60549 6.58674 2.7774 5.9538 3.02354C5.29351 3.2814 4.73481 3.62131 4.18002 4.18002C3.62131 4.73481 3.2814 5.29351 3.02354 5.94989C2.7774 6.58674 2.60549 7.31344 2.55861 8.37615C2.51172 9.44667 2.5 9.78658 2.5 12.502C2.5 15.2173 2.51172 15.5572 2.55861 16.6239C2.60549 17.6866 2.7774 18.4172 3.02354 19.0501C3.2814 19.7104 3.62131 20.2691 4.18002 20.8239C4.73481 21.3787 5.29351 21.7225 5.94989 21.9765C6.58674 22.2226 7.31344 22.3945 8.37615 22.4414C9.44276 22.4883 9.78267 22.5 12.498 22.5C15.2134 22.5 15.5533 22.4883 16.6199 22.4414C17.6827 22.3945 18.4133 22.2226 19.0462 21.9765C19.7026 21.7225 20.2613 21.3787 20.8161 20.8239C21.3709 20.2691 21.7147 19.7104 21.9686 19.054C22.2148 18.4172 22.3867 17.6905 22.4336 16.6278C22.4805 15.5611 22.4922 15.2212 22.4922 12.5059C22.4922 9.79049 22.4805 9.45058 22.4336 8.38396C22.3867 7.32125 22.2148 6.59064 21.9686 5.95771C21.7225 5.29351 21.3826 4.73481 20.8239 4.18002C20.2691 3.62522 19.7104 3.2814 19.054 3.02745C18.4172 2.7813 17.6905 2.6094 16.6278 2.56251C15.5572 2.51172 15.2173 2.5 12.502 2.5Z" fill="white"/>
<path d="M12.501 7.36426C9.66451 7.36426 7.36328 9.66549 7.36328 12.502C7.36328 15.3385 9.66451 17.6397 12.501 17.6397C15.3375 17.6397 17.6387 15.3385 17.6387 12.502C17.6387 9.66549 15.3375 7.36426 12.501 7.36426ZM12.501 15.8347C10.6608 15.8347 9.16832 14.3422 9.16832 12.502C9.16832 10.6618 10.6608 9.1693 12.501 9.1693C14.3412 9.1693 15.8337 10.6618 15.8337 12.502C15.8337 14.3422 14.3412 15.8347 12.501 15.8347Z" fill="white"/>
<path d="M19.0434 7.16137C19.0434 7.82556 18.5043 8.36082 17.844 8.36082C17.1798 8.36082 16.6445 7.82165 16.6445 7.16137C16.6445 6.49718 17.1837 5.96191 17.844 5.96191C18.5043 5.96191 19.0434 6.50108 19.0434 7.16137Z" fill="white"/>
</svg>
