<svg width="25" height="25" viewBox="0 0 25 25" fill="none" xmlns="http://www.w3.org/2000/svg">
<g clip-path="url(#clip0_3499_696)">
<path d="M19.4419 6.02317C18.1473 5.41744 16.763 4.97723 15.3157 4.72656C15.138 5.0479 14.9304 5.48012 14.7872 5.82394C13.2487 5.59258 11.7245 5.59258 10.2143 5.82394C10.0712 5.48012 9.8588 5.0479 9.67947 4.72656C8.23067 4.97723 6.8448 5.41906 5.55016 6.02638C2.93887 9.97238 2.23099 13.8204 2.58493 17.6137C4.31688 18.9071 5.99534 19.6928 7.64548 20.2069C8.05291 19.6462 8.41628 19.0501 8.72931 18.4219C8.13313 18.1954 7.56211 17.9158 7.02256 17.5912C7.1657 17.4852 7.30571 17.3743 7.44098 17.2603C10.7318 18.7995 14.3074 18.7995 17.5589 17.2603C17.6958 17.3743 17.8358 17.4852 17.9774 17.5912C17.4362 17.9174 16.8637 18.1969 16.2675 18.4235C16.5805 19.0501 16.9423 19.6478 17.3513 20.2085C19.003 19.6944 20.683 18.9087 22.415 17.6137C22.8303 13.2163 21.7056 9.40361 19.4419 6.02317ZM9.17765 15.2809C8.18977 15.2809 7.37963 14.3586 7.37963 13.2355C7.37963 12.1125 8.17247 11.1886 9.17765 11.1886C10.1829 11.1886 10.993 12.1109 10.9757 13.2355C10.9772 14.3586 10.1829 15.2809 9.17765 15.2809ZM15.8223 15.2809C14.8344 15.2809 14.0243 14.3586 14.0243 13.2355C14.0243 12.1125 14.8171 11.1886 15.8223 11.1886C16.8275 11.1886 17.6376 12.1109 17.6203 13.2355C17.6203 14.3586 16.8275 15.2809 15.8223 15.2809Z" fill="white"/>
</g>
<defs>
<clipPath id="clip0_3499_696">
<rect width="20" height="20" fill="white" transform="translate(2.5 2.5)"/>
</clipPath>
</defs>
</svg>
