<svg width="25" height="25" viewBox="0 0 25 25" fill="none" xmlns="http://www.w3.org/2000/svg">
<path d="M8.7918 20.8636C16.3371 20.8636 20.4652 14.5674 20.4652 9.109C20.4652 8.93199 20.4613 8.75106 20.4535 8.57405C21.2566 7.98926 21.9496 7.26492 22.5 6.43506C21.7521 6.77013 20.958 6.98896 20.1449 7.08407C21.0011 6.56731 21.6421 5.75551 21.9492 4.79915C21.1438 5.27979 20.263 5.61885 19.3445 5.80178C18.7257 5.13966 17.9075 4.70126 17.0164 4.55436C16.1253 4.40746 15.211 4.56024 14.4148 4.98907C13.6186 5.4179 12.9848 6.09891 12.6115 6.9268C12.2382 7.75469 12.1462 8.68335 12.3496 9.56921C10.7187 9.4868 9.12328 9.0602 7.66665 8.31706C6.21002 7.57392 4.92474 6.53084 3.89414 5.25543C3.37033 6.16481 3.21005 7.24092 3.44586 8.26503C3.68167 9.28914 4.29589 10.1844 5.16367 10.7689C4.51219 10.7481 3.87498 10.5715 3.30469 10.2536V10.3048C3.3041 11.2591 3.63175 12.1842 4.23192 12.9228C4.8321 13.6614 5.66777 14.1679 6.59687 14.3562C5.99338 14.5225 5.35999 14.5467 4.7457 14.427C5.00788 15.2477 5.51798 15.9656 6.20481 16.4803C6.89164 16.9951 7.72093 17.2811 8.57695 17.2984C7.12369 18.4479 5.32848 19.0714 3.48047 19.0684C3.15274 19.0679 2.82533 19.0477 2.5 19.0078C4.37738 20.2207 6.56128 20.8648 8.7918 20.8636Z" fill="white"/>
</svg>
