<svg width="25" height="25" viewBox="0 0 25 25" fill="none" xmlns="http://www.w3.org/2000/svg">
<path d="M12.5 2.5C18.0228 2.5 22.5 6.97715 22.5 12.5C22.5 18.0228 18.0228 22.5 12.5 22.5C6.97715 22.5 2.5 18.0228 2.5 12.5C2.5 6.97715 6.97715 2.5 12.5 2.5ZM16.5889 8.52051C16.2127 8.52713 15.6355 8.72772 12.8584 9.88281C11.8857 10.2874 9.94135 11.1245 7.02637 12.3945C6.55321 12.5827 6.30577 12.7672 6.2832 12.9473C6.24012 13.2928 6.7373 13.4 7.36328 13.6035C7.87386 13.7695 8.56092 13.964 8.91797 13.9717C9.24174 13.9787 9.60301 13.8452 10.002 13.5713C12.7257 11.7327 14.1324 10.8032 14.2207 10.7832C14.283 10.7691 14.3693 10.7518 14.4277 10.8037C14.4858 10.8558 14.4798 10.9541 14.4736 10.9805C14.4205 11.1945 11.8659 13.519 11.7188 13.6719C11.1562 14.2561 10.5162 14.6132 11.5029 15.2637C12.3571 15.8265 12.8546 16.186 13.7344 16.7627C14.2968 17.1314 14.7386 17.5691 15.3193 17.5156C15.5864 17.4909 15.8618 17.2393 16.002 16.4902C16.3332 14.7192 16.9853 10.882 17.1357 9.30078C17.1489 9.16226 17.1315 8.98503 17.1182 8.90723C17.1049 8.82948 17.0775 8.71876 16.9766 8.63672C16.8568 8.53952 16.6716 8.51906 16.5889 8.52051Z" fill="white"/>
</svg>
