<svg width="207" height="36" viewBox="0 0 207 36" fill="none" xmlns="http://www.w3.org/2000/svg">
<g clip-path="url(#clip0_3499_659)">
<path d="M17.9961 36C14.4353 36 10.9544 34.9441 7.99366 32.9658C5.03294 30.9875 2.72533 28.1757 1.36266 24.8859C-1.1716e-05 21.5961 -0.356549 17.9761 0.338135 14.4837C1.03282 10.9913 2.74752 7.7833 5.26541 5.26541C7.7833 2.74752 10.9913 1.03282 14.4837 0.338135C17.9761 -0.356549 21.5961 -1.1716e-05 24.8859 1.36266C28.1757 2.72533 30.9875 5.03294 32.9658 7.99366C34.9441 10.9544 36 14.4353 36 17.9961C36 22.771 34.1031 27.3504 30.7268 30.7268C27.3504 34.1031 22.771 36 17.9961 36Z" fill="#00D372"/>
<path d="M47.5351 29.3041L50.1093 23.4947L44.9609 11.9302H48.6395L51.9214 19.8706L55.18 11.9302H58.8741L51.1826 29.3041H47.5351Z" fill="white"/>
<path d="M57.9455 18.0583C57.9348 16.7805 58.3039 15.5284 59.0061 14.4609C59.7082 13.3933 60.7118 12.5585 61.8893 12.0624C63.0669 11.5663 64.3653 11.4313 65.6197 11.6745C66.8741 11.9177 68.0279 12.5282 68.9347 13.4284C69.8415 14.3287 70.4604 15.478 70.7127 16.7307C70.965 17.9833 70.8395 19.2826 70.3519 20.4637C69.8644 21.6448 69.0369 22.6544 67.9745 23.3644C66.9121 24.0743 65.6627 24.4525 64.3849 24.451C63.5412 24.4582 62.7045 24.2981 61.923 23.98C61.1415 23.6618 60.4309 23.192 59.8321 22.5975C59.2333 22.0031 58.7583 21.2958 58.4345 20.5167C58.1107 19.7376 57.9445 18.902 57.9455 18.0583ZM67.4258 18.0583C67.4467 17.6444 67.3832 17.2307 67.2392 16.8422C67.0953 16.4536 66.8738 16.0984 66.5883 15.7981C66.3028 15.4979 65.9592 15.2588 65.5784 15.0954C65.1976 14.932 64.7876 14.8478 64.3733 14.8478C63.9589 14.8478 63.5489 14.932 63.1681 15.0954C62.7874 15.2588 62.4438 15.4979 62.1583 15.7981C61.8728 16.0984 61.6513 16.4536 61.5073 16.8422C61.3634 17.2307 61.2999 17.6444 61.3208 18.0583C61.2999 18.4721 61.3634 18.8858 61.5073 19.2744C61.6513 19.6629 61.8728 20.0181 62.1583 20.3184C62.4438 20.6187 62.7874 20.8578 63.1681 21.0211C63.5489 21.1845 63.9589 21.2688 64.3733 21.2688C64.7876 21.2688 65.1976 21.1845 65.5784 21.0211C65.9592 20.8578 66.3028 20.6187 66.5883 20.3184C66.8738 20.0181 67.0953 19.6629 67.2392 19.2744C67.3832 18.8858 67.4467 18.4721 67.4258 18.0583Z" fill="white"/>
<path d="M71.7578 19.0384V11.9302H75.1175V18.4707C75.1175 20.3372 75.7319 21.3871 77.2018 21.3871C78.6716 21.3871 79.7215 20.2905 79.7215 17.9107V11.9302H83.0812V24.179H79.7215V22.7869C79.3472 23.325 78.8429 23.7598 78.2555 24.0508C77.6681 24.3417 77.0167 24.4795 76.3618 24.4512C73.4221 24.4512 71.7578 22.2737 71.7578 19.0073" fill="white"/>
<path d="M84.9648 11.93H88.3245V13.3299C88.7263 12.7863 89.2557 12.3501 89.8661 12.0599C90.4765 11.7696 91.149 11.6342 91.8242 11.6656C94.7873 11.6656 96.5527 13.8198 96.5527 17.0006V24.1789H93.2007V17.5684C93.2007 15.803 92.423 14.722 91.0387 14.722C89.4833 14.722 88.3245 15.8496 88.3245 18.2061V24.1789H84.9648V11.93Z" fill="white"/>
<path d="M97.9917 24.941H101.274C101.456 25.5153 101.832 26.0091 102.336 26.3392C102.84 26.6692 103.443 26.8154 104.042 26.753C104.421 26.7688 104.798 26.7037 105.15 26.5622C105.501 26.4206 105.818 26.2058 106.08 25.9321C106.342 25.6584 106.543 25.3321 106.669 24.9748C106.795 24.6175 106.843 24.2374 106.811 23.86V22.4212C106.381 22.9429 105.837 23.3592 105.22 23.6382C104.604 23.9172 103.933 24.0516 103.257 24.0311C101.681 23.9763 100.191 23.2988 99.1133 22.1471C98.0359 20.9954 97.4592 19.4634 97.5095 17.8872C97.4752 17.098 97.5979 16.3098 97.8707 15.5685C98.1434 14.8271 98.5606 14.1473 99.0982 13.5685C99.6358 12.9897 100.283 12.5234 101.002 12.1967C101.721 11.8701 102.498 11.6895 103.288 11.6655C103.968 11.6384 104.645 11.7729 105.262 12.0582C105.88 12.3435 106.422 12.7713 106.842 13.3065V11.93H110.202V23.4245C110.202 27.8574 107.184 29.545 103.98 29.545C100.496 29.545 98.2717 27.5619 97.9995 24.941H97.9917ZM107.114 17.8872C107.114 17.2719 106.932 16.6705 106.59 16.1589C106.248 15.6473 105.762 15.2486 105.194 15.0132C104.625 14.7777 104 14.7161 103.397 14.8361C102.793 14.9562 102.239 15.2524 101.804 15.6875C101.369 16.1226 101.072 16.6769 100.952 17.2803C100.832 17.8837 100.894 18.5092 101.129 19.0777C101.365 19.6461 101.764 20.1319 102.275 20.4737C102.787 20.8156 103.388 20.998 104.003 20.998C104.414 21.0065 104.823 20.9318 105.204 20.7785C105.585 20.6251 105.931 20.3963 106.222 20.1057C106.513 19.8152 106.741 19.4689 106.895 19.0876C107.048 18.7064 107.123 18.298 107.114 17.8872Z" fill="white"/>
<path d="M115.723 29.3041V11.9302H119.082V13.3067C119.51 12.7802 120.053 12.3587 120.669 12.0743C121.285 11.7898 121.958 11.6501 122.636 11.6657C125.895 11.6657 128.391 14.6055 128.391 18.0585C128.391 21.5115 125.895 24.4512 122.636 24.4512C121.958 24.4669 121.285 24.3271 120.669 24.0427C120.053 23.7583 119.51 23.3367 119.082 22.8103V29.3041H115.723ZM124.985 18.0585C124.985 16.122 123.764 14.7221 121.874 14.7221C119.984 14.7221 118.763 16.122 118.763 18.0585C118.763 19.995 119.992 21.3871 121.874 21.3871C123.756 21.3871 124.985 19.995 124.985 18.0585Z" fill="white"/>
<path d="M132.848 5.80957H129.496V24.1868H132.848V5.80957Z" fill="white"/>
<path d="M133.953 18.0582C133.953 14.6052 136.45 11.6655 139.708 11.6655C140.383 11.6517 141.052 11.7924 141.664 12.0768C142.276 12.3612 142.814 12.7818 143.239 13.3064V11.9299H146.591V24.1788H143.239V22.81C142.814 23.3346 142.276 23.7552 141.664 24.0397C141.052 24.3241 140.383 24.4648 139.708 24.451C136.45 24.451 133.953 21.5112 133.953 18.0582ZM143.503 18.0582C143.503 16.1217 142.282 14.7219 140.393 14.7219C138.503 14.7219 137.282 16.1217 137.282 18.0582C137.282 19.9947 138.503 21.3868 140.393 21.3868C142.282 21.3868 143.503 19.9947 143.503 18.0582Z" fill="white"/>
<path d="M149.754 19.8936V14.8697H147.273V11.9299H149.754V8.55469H153.106V11.9533H156.559V14.893H153.106V19.2559C153.106 20.7491 153.721 21.3402 155.19 21.3402C155.656 21.3463 156.119 21.2726 156.559 21.1224V24.0855C155.867 24.2834 155.148 24.3726 154.428 24.3499C151.831 24.3499 149.762 22.9345 149.762 19.917" fill="white"/>
<path d="M158.918 14.8695H156.438V11.9298H158.918V10.3744C158.882 9.75213 158.978 9.12928 159.2 8.54676C159.422 7.96424 159.764 7.43523 160.205 6.9945C160.645 6.55377 161.175 6.2113 161.757 5.98959C162.34 5.76788 162.962 5.67196 163.585 5.70813C164.305 5.68741 165.024 5.77924 165.716 5.98032V8.94338C165.276 8.78677 164.813 8.71038 164.347 8.71785C162.877 8.71785 162.263 9.3089 162.263 10.8021V11.9764H165.716V14.9162H162.263V24.2486H158.911L158.918 14.8695Z" fill="white"/>
<path d="M165.207 18.0583C165.196 16.7809 165.565 15.5291 166.267 14.4617C166.969 13.3943 167.972 12.5595 169.149 12.0632C170.326 11.5668 171.624 11.4314 172.879 11.674C174.133 11.9165 175.287 12.5262 176.194 13.4257C177.101 14.3251 177.72 15.4738 177.973 16.7259C178.227 17.978 178.102 19.2771 177.616 20.4583C177.13 21.6396 176.303 22.6497 175.242 23.3606C174.181 24.0714 172.932 24.451 171.654 24.451C170.81 24.4582 169.973 24.2981 169.191 23.9801C168.409 23.6621 167.698 23.1923 167.099 22.598C166.499 22.0036 166.024 21.2965 165.699 20.5173C165.374 19.7381 165.207 18.9024 165.207 18.0583ZM174.688 18.0583C174.717 17.6396 174.661 17.2193 174.521 16.8235C174.382 16.4276 174.162 16.0648 173.876 15.7576C173.59 15.4505 173.244 15.2055 172.859 15.0379C172.474 14.8704 172.059 14.784 171.639 14.784C171.219 14.784 170.804 14.8704 170.419 15.0379C170.034 15.2055 169.688 15.4505 169.402 15.7576C169.116 16.0648 168.896 16.4276 168.757 16.8235C168.617 17.2193 168.56 17.6396 168.59 18.0583C168.56 18.4769 168.617 18.8973 168.757 19.2931C168.896 19.6889 169.116 20.0517 169.402 20.3589C169.688 20.6661 170.034 20.9111 170.419 21.0786C170.804 21.2461 171.219 21.3325 171.639 21.3325C172.059 21.3325 172.474 21.2461 172.859 21.0786C173.244 20.9111 173.59 20.6661 173.876 20.3589C174.162 20.0517 174.382 19.6889 174.521 19.2931C174.661 18.8973 174.717 18.4769 174.688 18.0583Z" fill="white"/>
<path d="M179.176 11.9303H182.528V13.8901C182.762 13.2726 183.178 12.7406 183.721 12.3643C184.264 11.988 184.908 11.7852 185.568 11.7826C185.949 11.7776 186.329 11.8274 186.696 11.9303V15.3367C186.197 15.158 185.671 15.0685 185.141 15.0723C183.585 15.0723 182.496 16.2933 182.496 18.3308V24.1792H179.145L179.176 11.9303Z" fill="white"/>
<path d="M202.933 17.6385C202.933 15.8031 202.374 14.7221 201.02 14.7221C199.667 14.7221 198.648 15.7798 198.571 18.0352V24.179H195.203V17.6385C195.203 15.8031 194.635 14.7221 193.29 14.7221C191.82 14.7221 190.84 15.8498 190.84 18.2063V24.179H187.48V11.9302H190.84V13.33C191.204 12.8013 191.694 12.372 192.265 12.0813C192.837 11.7906 193.473 11.6477 194.114 11.6657C194.896 11.6403 195.669 11.8391 196.342 12.2388C197.014 12.6384 197.558 13.2222 197.909 13.9211C198.289 13.2442 198.841 12.6793 199.509 12.2834C200.176 11.8874 200.936 11.6744 201.712 11.6657C204.652 11.6657 206.293 13.7422 206.293 17.1097V24.2101H202.933V17.6385Z" fill="white"/>
<path d="M24.3172 11.7354L18.01 18.0425L14.1604 14.1929L11.6406 16.7127L18.01 23.0821L20.5298 20.5623L21.7897 19.3024L23.0496 18.0425L24.3172 16.7749L26.837 14.2551L24.3172 11.7354Z" fill="white"/>
<path d="M14.2296 21.831L11.7109 24.3496L14.2296 26.8682L16.7482 24.3496L14.2296 21.831Z" fill="white"/>
</g>
<defs>
<clipPath id="clip0_3499_659">
<rect width="206.294" height="36" fill="white"/>
</clipPath>
</defs>
</svg>
