<svg width="375" height="120" viewBox="0 0 375 120" fill="none" xmlns="http://www.w3.org/2000/svg">
<path d="M119.754 100.904H121.794V103.184C122.114 102.432 122.578 101.832 123.186 101.384C123.81 100.936 124.562 100.712 125.442 100.712C126.434 100.712 127.282 100.936 127.986 101.384C128.706 101.832 129.17 102.456 129.378 103.256C129.714 102.504 130.226 101.896 130.914 101.432C131.618 100.952 132.41 100.712 133.29 100.712C134.586 100.712 135.61 101.088 136.362 101.84C137.13 102.592 137.514 103.608 137.514 104.888V113H135.474V105.296C135.474 104.448 135.242 103.776 134.778 103.28C134.314 102.768 133.666 102.512 132.834 102.512C131.826 102.512 131.042 102.92 130.482 103.736C129.922 104.552 129.642 105.616 129.642 106.928V113H127.602V105.296C127.602 104.448 127.37 103.776 126.906 103.28C126.458 102.768 125.818 102.512 124.986 102.512C123.978 102.512 123.194 102.92 122.634 103.736C122.074 104.552 121.794 105.616 121.794 106.928V113H119.754V100.904ZM139.728 106.952C139.728 105.8 139.96 104.752 140.424 103.808C140.904 102.848 141.584 102.096 142.464 101.552C143.36 100.992 144.4 100.712 145.584 100.712C146.736 100.712 147.752 100.968 148.632 101.48C149.512 101.976 150.184 102.664 150.648 103.544C151.128 104.408 151.368 105.36 151.368 106.4C151.368 106.736 151.352 107.048 151.32 107.336H141.768C141.832 108.552 142.216 109.536 142.92 110.288C143.64 111.024 144.544 111.392 145.632 111.392C146.56 111.392 147.328 111.184 147.936 110.768C148.544 110.352 148.936 109.768 149.112 109.016L151.032 109.472C150.728 110.64 150.096 111.552 149.136 112.208C148.192 112.864 147.024 113.192 145.632 113.192C144.448 113.192 143.408 112.92 142.512 112.376C141.632 111.816 140.944 111.064 140.448 110.12C139.968 109.16 139.728 108.104 139.728 106.952ZM149.208 105.632C149.112 104.672 148.744 103.896 148.104 103.304C147.464 102.712 146.624 102.416 145.584 102.416C144.64 102.416 143.84 102.704 143.184 103.28C142.528 103.84 142.096 104.624 141.888 105.632H149.208ZM158.73 113.192C157.514 113.192 156.466 112.928 155.586 112.4C154.706 111.856 154.034 111.112 153.57 110.168C153.122 109.224 152.898 108.152 152.898 106.952C152.898 105.752 153.122 104.68 153.57 103.736C154.034 102.792 154.698 102.056 155.562 101.528C156.442 100.984 157.49 100.712 158.706 100.712C159.506 100.712 160.266 100.888 160.986 101.24C161.722 101.592 162.282 102.056 162.666 102.632V96.008H164.706V113H162.666V111.248C162.394 111.808 161.89 112.272 161.154 112.64C160.418 113.008 159.61 113.192 158.73 113.192ZM154.986 106.952C154.986 108.28 155.346 109.352 156.066 110.168C156.786 110.968 157.738 111.368 158.922 111.368C160.106 111.368 161.058 110.968 161.778 110.168C162.498 109.352 162.858 108.28 162.858 106.952C162.858 105.624 162.498 104.56 161.778 103.76C161.058 102.944 160.106 102.536 158.922 102.536C157.738 102.536 156.786 102.944 156.066 103.76C155.346 104.56 154.986 105.624 154.986 106.952ZM167.608 100.904H169.648V113H167.608V100.904ZM168.616 98.624C168.216 98.624 167.88 98.488 167.608 98.216C167.336 97.944 167.2 97.608 167.2 97.208C167.2 96.792 167.336 96.448 167.608 96.176C167.88 95.904 168.216 95.768 168.616 95.768C169.032 95.768 169.376 95.904 169.648 96.176C169.936 96.448 170.08 96.792 170.08 97.208C170.08 97.608 169.936 97.944 169.648 98.216C169.376 98.488 169.032 98.624 168.616 98.624ZM178 113.192C176.816 113.192 175.752 112.928 174.808 112.4C173.88 111.856 173.152 111.112 172.624 110.168C172.112 109.224 171.856 108.152 171.856 106.952C171.856 105.752 172.112 104.68 172.624 103.736C173.152 102.792 173.88 102.056 174.808 101.528C175.752 100.984 176.816 100.712 178 100.712C179.184 100.712 180.24 100.984 181.168 101.528C182.112 102.056 182.848 102.792 183.376 103.736C183.904 104.68 184.168 105.752 184.168 106.952C184.168 108.152 183.904 109.224 183.376 110.168C182.848 111.112 182.112 111.856 181.168 112.4C180.24 112.928 179.184 113.192 178 113.192ZM173.944 106.952C173.944 108.248 174.32 109.312 175.072 110.144C175.824 110.96 176.8 111.368 178 111.368C179.2 111.368 180.176 110.96 180.928 110.144C181.68 109.312 182.056 108.248 182.056 106.952C182.056 105.656 181.68 104.6 180.928 103.784C180.176 102.952 179.2 102.536 178 102.536C176.8 102.536 175.824 102.952 175.072 103.784C174.32 104.6 173.944 105.656 173.944 106.952ZM199.232 105.128C199.232 104.296 198.96 103.64 198.416 103.16C197.888 102.664 197.176 102.416 196.28 102.416C195.448 102.416 194.76 102.648 194.216 103.112C193.672 103.576 193.36 104.216 193.28 105.032L191.384 104.672C191.56 103.472 192.096 102.512 192.992 101.792C193.904 101.072 195 100.712 196.28 100.712C197.768 100.712 198.968 101.12 199.88 101.936C200.792 102.752 201.248 103.856 201.248 105.248V113H199.232V110.936C198.88 111.624 198.336 112.176 197.6 112.592C196.88 112.992 196.08 113.192 195.2 113.192C194 113.192 193.016 112.864 192.248 112.208C191.496 111.536 191.12 110.672 191.12 109.616C191.12 108.464 191.592 107.56 192.536 106.904C193.496 106.248 194.944 105.824 196.88 105.632L199.232 105.368V105.128ZM193.16 109.592C193.16 110.152 193.376 110.616 193.808 110.984C194.256 111.336 194.824 111.512 195.512 111.512C196.68 111.512 197.592 111.152 198.248 110.432C198.904 109.712 199.232 108.744 199.232 107.528V106.952L196.88 107.216C195.664 107.344 194.736 107.616 194.096 108.032C193.472 108.432 193.16 108.952 193.16 109.592ZM204.165 100.904H206.205V103.184C206.637 102.432 207.213 101.832 207.933 101.384C208.653 100.936 209.461 100.712 210.357 100.712C211.621 100.712 212.653 101.104 213.453 101.888C214.269 102.672 214.677 103.704 214.677 104.984V113H212.637V105.368C212.637 104.536 212.389 103.864 211.893 103.352C211.397 102.824 210.733 102.56 209.901 102.56C208.765 102.56 207.861 103.024 207.189 103.952C206.533 104.864 206.205 106.112 206.205 107.696V113H204.165V100.904ZM217.593 100.904H219.633V103.184C220.065 102.432 220.641 101.832 221.361 101.384C222.081 100.936 222.889 100.712 223.785 100.712C225.049 100.712 226.081 101.104 226.881 101.888C227.697 102.672 228.105 103.704 228.105 104.984V113H226.065V105.368C226.065 104.536 225.817 103.864 225.321 103.352C224.825 102.824 224.161 102.56 223.329 102.56C222.193 102.56 221.289 103.024 220.617 103.952C219.961 104.864 219.633 106.112 219.633 107.696V113H217.593V100.904ZM241.416 113H239.376V110.72C238.944 111.472 238.368 112.072 237.648 112.52C236.928 112.968 236.12 113.192 235.224 113.192C233.96 113.192 232.92 112.8 232.104 112.016C231.304 111.232 230.904 110.2 230.904 108.92V100.904H232.944V108.536C232.944 109.368 233.192 110.048 233.688 110.576C234.184 111.088 234.848 111.344 235.68 111.344C236.816 111.344 237.712 110.888 238.368 109.976C239.04 109.048 239.376 107.792 239.376 106.208V100.904H241.416V113ZM249.78 113.192C248.596 113.192 247.532 112.928 246.588 112.4C245.66 111.856 244.932 111.112 244.404 110.168C243.892 109.224 243.636 108.152 243.636 106.952C243.636 105.752 243.892 104.68 244.404 103.736C244.932 102.792 245.66 102.056 246.588 101.528C247.532 100.984 248.596 100.712 249.78 100.712C250.964 100.712 252.02 100.984 252.948 101.528C253.892 102.056 254.628 102.792 255.156 103.736C255.684 104.68 255.948 105.752 255.948 106.952C255.948 108.152 255.684 109.224 255.156 110.168C254.628 111.112 253.892 111.856 252.948 112.4C252.02 112.928 250.964 113.192 249.78 113.192ZM245.724 106.952C245.724 108.248 246.1 109.312 246.852 110.144C247.604 110.96 248.58 111.368 249.78 111.368C250.98 111.368 251.956 110.96 252.708 110.144C253.46 109.312 253.836 108.248 253.836 106.952C253.836 105.656 253.46 104.6 252.708 103.784C251.956 102.952 250.98 102.536 249.78 102.536C248.58 102.536 247.604 102.952 246.852 103.784C246.1 104.6 245.724 105.656 245.724 106.952Z" fill="white"/>
<path d="M159.278 42.488H147.438V54.328H139.438V42.424H127.534V34.488H139.438V22.584H147.374V34.488H159.278V42.488ZM179.638 44.472C176.608 44.472 173.899 43.8107 171.51 42.488C169.163 41.1653 167.307 39.352 165.942 37.048C164.619 34.7013 163.958 32.056 163.958 29.112C163.958 26.168 164.704 23.5227 166.198 21.176C167.691 18.8293 169.739 16.9947 172.342 15.672C174.987 14.3493 177.974 13.688 181.302 13.688C184.672 13.688 187.68 14.584 190.326 16.376C192.971 18.168 195.04 20.664 196.534 23.864C198.027 27.064 198.774 30.712 198.774 34.808C198.774 40.184 197.771 44.728 195.766 48.44C193.803 52.152 191.2 54.9253 187.958 56.76C184.715 58.5947 181.195 59.512 177.398 59.512C174.88 59.512 172.448 59.1067 170.102 58.296C167.755 57.4427 165.686 56.248 163.894 54.712L168.374 47.544C169.526 48.5253 170.848 49.336 172.342 49.976C173.835 50.5733 175.414 50.872 177.078 50.872C180.448 50.872 183.243 49.8693 185.462 47.864C187.68 45.816 188.96 43.1493 189.302 39.864C188.235 41.3573 186.87 42.5093 185.206 43.32C183.542 44.088 181.686 44.472 179.638 44.472ZM173.814 29.816C173.814 31.864 174.496 33.5493 175.862 34.872C177.227 36.1947 178.955 36.856 181.046 36.856C183.179 36.856 184.928 36.1947 186.294 34.872C187.659 33.5067 188.342 31.7787 188.342 29.688C188.342 27.5547 187.659 25.8053 186.294 24.44C184.928 23.0747 183.179 22.392 181.046 22.392C178.912 22.392 177.163 23.096 175.798 24.504C174.475 25.8693 173.814 27.64 173.814 29.816ZM235.979 14.2H243.403L213.451 59H206.027L235.979 14.2ZM237.707 59.512C234.507 59.512 231.947 58.488 230.027 56.44C228.15 54.392 227.211 51.6613 227.211 48.248C227.211 44.8347 228.15 42.104 230.027 40.056C231.947 38.008 234.507 36.984 237.707 36.984C240.864 36.984 243.382 38.008 245.259 40.056C247.179 42.104 248.139 44.8347 248.139 48.248C248.139 51.6613 247.179 54.392 245.259 56.44C243.382 58.488 240.864 59.512 237.707 59.512ZM234.123 48.248C234.123 49.8693 234.422 51.128 235.019 52.024C235.659 52.8773 236.555 53.304 237.707 53.304C238.816 53.304 239.67 52.8773 240.267 52.024C240.864 51.128 241.163 49.8693 241.163 48.248C241.163 46.6267 240.864 45.3893 240.267 44.536C239.67 43.64 238.816 43.192 237.707 43.192C236.555 43.192 235.659 43.64 235.019 44.536C234.422 45.3893 234.123 46.6267 234.123 48.248ZM211.915 36.216C208.715 36.216 206.155 35.192 204.235 33.144C202.358 31.096 201.419 28.3653 201.419 24.952C201.419 21.5387 202.358 18.808 204.235 16.76C206.155 14.712 208.715 13.688 211.915 13.688C215.072 13.688 217.59 14.712 219.467 16.76C221.387 18.808 222.347 21.5387 222.347 24.952C222.347 28.3653 221.387 31.096 219.467 33.144C217.59 35.192 215.072 36.216 211.915 36.216ZM208.331 24.952C208.331 26.5733 208.63 27.832 209.227 28.728C209.867 29.5813 210.763 30.008 211.915 30.008C213.024 30.008 213.878 29.5813 214.475 28.728C215.072 27.832 215.371 26.5733 215.371 24.952C215.371 23.3307 215.072 22.0933 214.475 21.24C213.878 20.344 213.024 19.896 211.915 19.896C210.763 19.896 209.867 20.344 209.227 21.24C208.63 22.0933 208.331 23.3307 208.331 24.952Z" fill="white"/>
</svg>
