<svg width="374" height="120" viewBox="0 0 374 120" fill="none" xmlns="http://www.w3.org/2000/svg">
<path d="M119.254 100.904H121.294V103.184C121.614 102.432 122.078 101.832 122.686 101.384C123.31 100.936 124.062 100.712 124.942 100.712C125.934 100.712 126.782 100.936 127.486 101.384C128.206 101.832 128.67 102.456 128.878 103.256C129.214 102.504 129.726 101.896 130.414 101.432C131.118 100.952 131.91 100.712 132.79 100.712C134.086 100.712 135.11 101.088 135.862 101.84C136.63 102.592 137.014 103.608 137.014 104.888V113H134.974V105.296C134.974 104.448 134.742 103.776 134.278 103.28C133.814 102.768 133.166 102.512 132.334 102.512C131.326 102.512 130.542 102.92 129.982 103.736C129.422 104.552 129.142 105.616 129.142 106.928V113H127.102V105.296C127.102 104.448 126.87 103.776 126.406 103.28C125.958 102.768 125.318 102.512 124.486 102.512C123.478 102.512 122.694 102.92 122.134 103.736C121.574 104.552 121.294 105.616 121.294 106.928V113H119.254V100.904ZM139.228 106.952C139.228 105.8 139.46 104.752 139.924 103.808C140.404 102.848 141.084 102.096 141.964 101.552C142.86 100.992 143.9 100.712 145.084 100.712C146.236 100.712 147.252 100.968 148.132 101.48C149.012 101.976 149.684 102.664 150.148 103.544C150.628 104.408 150.868 105.36 150.868 106.4C150.868 106.736 150.852 107.048 150.82 107.336H141.268C141.332 108.552 141.716 109.536 142.42 110.288C143.14 111.024 144.044 111.392 145.132 111.392C146.06 111.392 146.828 111.184 147.436 110.768C148.044 110.352 148.436 109.768 148.612 109.016L150.532 109.472C150.228 110.64 149.596 111.552 148.636 112.208C147.692 112.864 146.524 113.192 145.132 113.192C143.948 113.192 142.908 112.92 142.012 112.376C141.132 111.816 140.444 111.064 139.948 110.12C139.468 109.16 139.228 108.104 139.228 106.952ZM148.708 105.632C148.612 104.672 148.244 103.896 147.604 103.304C146.964 102.712 146.124 102.416 145.084 102.416C144.14 102.416 143.34 102.704 142.684 103.28C142.028 103.84 141.596 104.624 141.388 105.632H148.708ZM158.23 113.192C157.014 113.192 155.966 112.928 155.086 112.4C154.206 111.856 153.534 111.112 153.07 110.168C152.622 109.224 152.398 108.152 152.398 106.952C152.398 105.752 152.622 104.68 153.07 103.736C153.534 102.792 154.198 102.056 155.062 101.528C155.942 100.984 156.99 100.712 158.206 100.712C159.006 100.712 159.766 100.888 160.486 101.24C161.222 101.592 161.782 102.056 162.166 102.632V96.008H164.206V113H162.166V111.248C161.894 111.808 161.39 112.272 160.654 112.64C159.918 113.008 159.11 113.192 158.23 113.192ZM154.486 106.952C154.486 108.28 154.846 109.352 155.566 110.168C156.286 110.968 157.238 111.368 158.422 111.368C159.606 111.368 160.558 110.968 161.278 110.168C161.998 109.352 162.358 108.28 162.358 106.952C162.358 105.624 161.998 104.56 161.278 103.76C160.558 102.944 159.606 102.536 158.422 102.536C157.238 102.536 156.286 102.944 155.566 103.76C154.846 104.56 154.486 105.624 154.486 106.952ZM167.108 100.904H169.148V113H167.108V100.904ZM168.116 98.624C167.716 98.624 167.38 98.488 167.108 98.216C166.836 97.944 166.7 97.608 166.7 97.208C166.7 96.792 166.836 96.448 167.108 96.176C167.38 95.904 167.716 95.768 168.116 95.768C168.532 95.768 168.876 95.904 169.148 96.176C169.436 96.448 169.58 96.792 169.58 97.208C169.58 97.608 169.436 97.944 169.148 98.216C168.876 98.488 168.532 98.624 168.116 98.624ZM177.5 113.192C176.316 113.192 175.252 112.928 174.308 112.4C173.38 111.856 172.652 111.112 172.124 110.168C171.612 109.224 171.356 108.152 171.356 106.952C171.356 105.752 171.612 104.68 172.124 103.736C172.652 102.792 173.38 102.056 174.308 101.528C175.252 100.984 176.316 100.712 177.5 100.712C178.684 100.712 179.74 100.984 180.668 101.528C181.612 102.056 182.348 102.792 182.876 103.736C183.404 104.68 183.668 105.752 183.668 106.952C183.668 108.152 183.404 109.224 182.876 110.168C182.348 111.112 181.612 111.856 180.668 112.4C179.74 112.928 178.684 113.192 177.5 113.192ZM173.444 106.952C173.444 108.248 173.82 109.312 174.572 110.144C175.324 110.96 176.3 111.368 177.5 111.368C178.7 111.368 179.676 110.96 180.428 110.144C181.18 109.312 181.556 108.248 181.556 106.952C181.556 105.656 181.18 104.6 180.428 103.784C179.676 102.952 178.7 102.536 177.5 102.536C176.3 102.536 175.324 102.952 174.572 103.784C173.82 104.6 173.444 105.656 173.444 106.952ZM198.732 105.128C198.732 104.296 198.46 103.64 197.916 103.16C197.388 102.664 196.676 102.416 195.78 102.416C194.948 102.416 194.26 102.648 193.716 103.112C193.172 103.576 192.86 104.216 192.78 105.032L190.884 104.672C191.06 103.472 191.596 102.512 192.492 101.792C193.404 101.072 194.5 100.712 195.78 100.712C197.268 100.712 198.468 101.12 199.38 101.936C200.292 102.752 200.748 103.856 200.748 105.248V113H198.732V110.936C198.38 111.624 197.836 112.176 197.1 112.592C196.38 112.992 195.58 113.192 194.7 113.192C193.5 113.192 192.516 112.864 191.748 112.208C190.996 111.536 190.62 110.672 190.62 109.616C190.62 108.464 191.092 107.56 192.036 106.904C192.996 106.248 194.444 105.824 196.38 105.632L198.732 105.368V105.128ZM192.66 109.592C192.66 110.152 192.876 110.616 193.308 110.984C193.756 111.336 194.324 111.512 195.012 111.512C196.18 111.512 197.092 111.152 197.748 110.432C198.404 109.712 198.732 108.744 198.732 107.528V106.952L196.38 107.216C195.164 107.344 194.236 107.616 193.596 108.032C192.972 108.432 192.66 108.952 192.66 109.592ZM203.665 100.904H205.705V103.184C206.137 102.432 206.713 101.832 207.433 101.384C208.153 100.936 208.961 100.712 209.857 100.712C211.121 100.712 212.153 101.104 212.953 101.888C213.769 102.672 214.177 103.704 214.177 104.984V113H212.137V105.368C212.137 104.536 211.889 103.864 211.393 103.352C210.897 102.824 210.233 102.56 209.401 102.56C208.265 102.56 207.361 103.024 206.689 103.952C206.033 104.864 205.705 106.112 205.705 107.696V113H203.665V100.904ZM217.093 100.904H219.133V103.184C219.565 102.432 220.141 101.832 220.861 101.384C221.581 100.936 222.389 100.712 223.285 100.712C224.549 100.712 225.581 101.104 226.381 101.888C227.197 102.672 227.605 103.704 227.605 104.984V113H225.565V105.368C225.565 104.536 225.317 103.864 224.821 103.352C224.325 102.824 223.661 102.56 222.829 102.56C221.693 102.56 220.789 103.024 220.117 103.952C219.461 104.864 219.133 106.112 219.133 107.696V113H217.093V100.904ZM240.916 113H238.876V110.72C238.444 111.472 237.868 112.072 237.148 112.52C236.428 112.968 235.62 113.192 234.724 113.192C233.46 113.192 232.42 112.8 231.604 112.016C230.804 111.232 230.404 110.2 230.404 108.92V100.904H232.444V108.536C232.444 109.368 232.692 110.048 233.188 110.576C233.684 111.088 234.348 111.344 235.18 111.344C236.316 111.344 237.212 110.888 237.868 109.976C238.54 109.048 238.876 107.792 238.876 106.208V100.904H240.916V113ZM249.28 113.192C248.096 113.192 247.032 112.928 246.088 112.4C245.16 111.856 244.432 111.112 243.904 110.168C243.392 109.224 243.136 108.152 243.136 106.952C243.136 105.752 243.392 104.68 243.904 103.736C244.432 102.792 245.16 102.056 246.088 101.528C247.032 100.984 248.096 100.712 249.28 100.712C250.464 100.712 251.52 100.984 252.448 101.528C253.392 102.056 254.128 102.792 254.656 103.736C255.184 104.68 255.448 105.752 255.448 106.952C255.448 108.152 255.184 109.224 254.656 110.168C254.128 111.112 253.392 111.856 252.448 112.4C251.52 112.928 250.464 113.192 249.28 113.192ZM245.224 106.952C245.224 108.248 245.6 109.312 246.352 110.144C247.104 110.96 248.08 111.368 249.28 111.368C250.48 111.368 251.456 110.96 252.208 110.144C252.96 109.312 253.336 108.248 253.336 106.952C253.336 105.656 252.96 104.6 252.208 103.784C251.456 102.952 250.48 102.536 249.28 102.536C248.08 102.536 247.104 102.952 246.352 103.784C245.6 104.6 245.224 105.656 245.224 106.952Z" fill="white"/>
<path d="M148.178 42.488H136.338V54.328H128.338V42.424H116.434V34.488H128.338V22.584H136.274V34.488H148.178V42.488ZM161.241 24.952C158.084 27.2987 154.713 28.8347 151.129 29.56V20.536C153.092 20.0667 155.119 19.2773 157.209 18.168C159.3 17.016 161.22 15.6933 162.969 14.2H170.585V59H161.241V24.952ZM175.579 50.936L191.067 38.072C193.414 36.152 195.121 34.4027 196.188 32.824C197.254 31.2453 197.788 29.7093 197.788 28.216C197.788 26.4667 197.212 25.0587 196.059 23.992C194.907 22.8827 193.414 22.328 191.58 22.328C189.403 22.328 187.718 23.16 186.523 24.824C185.371 26.488 184.902 28.7067 185.115 31.48L175.515 30.84C175.473 30.456 175.451 29.9013 175.451 29.176C175.451 26.3173 176.155 23.7147 177.563 21.368C179.014 18.9787 180.977 17.1013 183.451 15.736C185.926 14.3707 188.635 13.688 191.58 13.688C194.822 13.688 197.659 14.3067 200.091 15.544C202.566 16.7387 204.486 18.4453 205.852 20.664C207.217 22.8827 207.9 25.4 207.9 28.216C207.9 31.032 207.025 33.7627 205.275 36.408C203.526 39.0107 200.732 41.784 196.892 44.728L189.723 50.296H207.835V59H175.579V50.936ZM246.079 14.2H253.503L223.551 59H216.127L246.079 14.2ZM247.807 59.512C244.607 59.512 242.047 58.488 240.127 56.44C238.25 54.392 237.311 51.6613 237.311 48.248C237.311 44.8347 238.25 42.104 240.127 40.056C242.047 38.008 244.607 36.984 247.807 36.984C250.964 36.984 253.482 38.008 255.359 40.056C257.279 42.104 258.239 44.8347 258.239 48.248C258.239 51.6613 257.279 54.392 255.359 56.44C253.482 58.488 250.964 59.512 247.807 59.512ZM244.223 48.248C244.223 49.8693 244.522 51.128 245.119 52.024C245.759 52.8773 246.655 53.304 247.807 53.304C248.916 53.304 249.77 52.8773 250.367 52.024C250.964 51.128 251.263 49.8693 251.263 48.248C251.263 46.6267 250.964 45.3893 250.367 44.536C249.77 43.64 248.916 43.192 247.807 43.192C246.655 43.192 245.759 43.64 245.119 44.536C244.522 45.3893 244.223 46.6267 244.223 48.248ZM222.015 36.216C218.815 36.216 216.255 35.192 214.335 33.144C212.458 31.096 211.519 28.3653 211.519 24.952C211.519 21.5387 212.458 18.808 214.335 16.76C216.255 14.712 218.815 13.688 222.015 13.688C225.172 13.688 227.69 14.712 229.567 16.76C231.487 18.808 232.447 21.5387 232.447 24.952C232.447 28.3653 231.487 31.096 229.567 33.144C227.69 35.192 225.172 36.216 222.015 36.216ZM218.431 24.952C218.431 26.5733 218.73 27.832 219.327 28.728C219.967 29.5813 220.863 30.008 222.015 30.008C223.124 30.008 223.978 29.5813 224.575 28.728C225.172 27.832 225.471 26.5733 225.471 24.952C225.471 23.3307 225.172 22.0933 224.575 21.24C223.978 20.344 223.124 19.896 222.015 19.896C220.863 19.896 219.967 20.344 219.327 21.24C218.73 22.0933 218.431 23.3307 218.431 24.952Z" fill="white"/>
</svg>
