<svg width="375" height="120" viewBox="0 0 375 120" fill="none" xmlns="http://www.w3.org/2000/svg">
<path d="M119.754 100.904H121.794V103.184C122.114 102.432 122.578 101.832 123.186 101.384C123.81 100.936 124.562 100.712 125.442 100.712C126.434 100.712 127.282 100.936 127.986 101.384C128.706 101.832 129.17 102.456 129.378 103.256C129.714 102.504 130.226 101.896 130.914 101.432C131.618 100.952 132.41 100.712 133.29 100.712C134.586 100.712 135.61 101.088 136.362 101.84C137.13 102.592 137.514 103.608 137.514 104.888V113H135.474V105.296C135.474 104.448 135.242 103.776 134.778 103.28C134.314 102.768 133.666 102.512 132.834 102.512C131.826 102.512 131.042 102.92 130.482 103.736C129.922 104.552 129.642 105.616 129.642 106.928V113H127.602V105.296C127.602 104.448 127.37 103.776 126.906 103.28C126.458 102.768 125.818 102.512 124.986 102.512C123.978 102.512 123.194 102.92 122.634 103.736C122.074 104.552 121.794 105.616 121.794 106.928V113H119.754V100.904ZM139.728 106.952C139.728 105.8 139.96 104.752 140.424 103.808C140.904 102.848 141.584 102.096 142.464 101.552C143.36 100.992 144.4 100.712 145.584 100.712C146.736 100.712 147.752 100.968 148.632 101.48C149.512 101.976 150.184 102.664 150.648 103.544C151.128 104.408 151.368 105.36 151.368 106.4C151.368 106.736 151.352 107.048 151.32 107.336H141.768C141.832 108.552 142.216 109.536 142.92 110.288C143.64 111.024 144.544 111.392 145.632 111.392C146.56 111.392 147.328 111.184 147.936 110.768C148.544 110.352 148.936 109.768 149.112 109.016L151.032 109.472C150.728 110.64 150.096 111.552 149.136 112.208C148.192 112.864 147.024 113.192 145.632 113.192C144.448 113.192 143.408 112.92 142.512 112.376C141.632 111.816 140.944 111.064 140.448 110.12C139.968 109.16 139.728 108.104 139.728 106.952ZM149.208 105.632C149.112 104.672 148.744 103.896 148.104 103.304C147.464 102.712 146.624 102.416 145.584 102.416C144.64 102.416 143.84 102.704 143.184 103.28C142.528 103.84 142.096 104.624 141.888 105.632H149.208ZM158.73 113.192C157.514 113.192 156.466 112.928 155.586 112.4C154.706 111.856 154.034 111.112 153.57 110.168C153.122 109.224 152.898 108.152 152.898 106.952C152.898 105.752 153.122 104.68 153.57 103.736C154.034 102.792 154.698 102.056 155.562 101.528C156.442 100.984 157.49 100.712 158.706 100.712C159.506 100.712 160.266 100.888 160.986 101.24C161.722 101.592 162.282 102.056 162.666 102.632V96.008H164.706V113H162.666V111.248C162.394 111.808 161.89 112.272 161.154 112.64C160.418 113.008 159.61 113.192 158.73 113.192ZM154.986 106.952C154.986 108.28 155.346 109.352 156.066 110.168C156.786 110.968 157.738 111.368 158.922 111.368C160.106 111.368 161.058 110.968 161.778 110.168C162.498 109.352 162.858 108.28 162.858 106.952C162.858 105.624 162.498 104.56 161.778 103.76C161.058 102.944 160.106 102.536 158.922 102.536C157.738 102.536 156.786 102.944 156.066 103.76C155.346 104.56 154.986 105.624 154.986 106.952ZM167.608 100.904H169.648V113H167.608V100.904ZM168.616 98.624C168.216 98.624 167.88 98.488 167.608 98.216C167.336 97.944 167.2 97.608 167.2 97.208C167.2 96.792 167.336 96.448 167.608 96.176C167.88 95.904 168.216 95.768 168.616 95.768C169.032 95.768 169.376 95.904 169.648 96.176C169.936 96.448 170.08 96.792 170.08 97.208C170.08 97.608 169.936 97.944 169.648 98.216C169.376 98.488 169.032 98.624 168.616 98.624ZM178 113.192C176.816 113.192 175.752 112.928 174.808 112.4C173.88 111.856 173.152 111.112 172.624 110.168C172.112 109.224 171.856 108.152 171.856 106.952C171.856 105.752 172.112 104.68 172.624 103.736C173.152 102.792 173.88 102.056 174.808 101.528C175.752 100.984 176.816 100.712 178 100.712C179.184 100.712 180.24 100.984 181.168 101.528C182.112 102.056 182.848 102.792 183.376 103.736C183.904 104.68 184.168 105.752 184.168 106.952C184.168 108.152 183.904 109.224 183.376 110.168C182.848 111.112 182.112 111.856 181.168 112.4C180.24 112.928 179.184 113.192 178 113.192ZM173.944 106.952C173.944 108.248 174.32 109.312 175.072 110.144C175.824 110.96 176.8 111.368 178 111.368C179.2 111.368 180.176 110.96 180.928 110.144C181.68 109.312 182.056 108.248 182.056 106.952C182.056 105.656 181.68 104.6 180.928 103.784C180.176 102.952 179.2 102.536 178 102.536C176.8 102.536 175.824 102.952 175.072 103.784C174.32 104.6 173.944 105.656 173.944 106.952ZM199.232 105.128C199.232 104.296 198.96 103.64 198.416 103.16C197.888 102.664 197.176 102.416 196.28 102.416C195.448 102.416 194.76 102.648 194.216 103.112C193.672 103.576 193.36 104.216 193.28 105.032L191.384 104.672C191.56 103.472 192.096 102.512 192.992 101.792C193.904 101.072 195 100.712 196.28 100.712C197.768 100.712 198.968 101.12 199.88 101.936C200.792 102.752 201.248 103.856 201.248 105.248V113H199.232V110.936C198.88 111.624 198.336 112.176 197.6 112.592C196.88 112.992 196.08 113.192 195.2 113.192C194 113.192 193.016 112.864 192.248 112.208C191.496 111.536 191.12 110.672 191.12 109.616C191.12 108.464 191.592 107.56 192.536 106.904C193.496 106.248 194.944 105.824 196.88 105.632L199.232 105.368V105.128ZM193.16 109.592C193.16 110.152 193.376 110.616 193.808 110.984C194.256 111.336 194.824 111.512 195.512 111.512C196.68 111.512 197.592 111.152 198.248 110.432C198.904 109.712 199.232 108.744 199.232 107.528V106.952L196.88 107.216C195.664 107.344 194.736 107.616 194.096 108.032C193.472 108.432 193.16 108.952 193.16 109.592ZM204.165 100.904H206.205V103.184C206.637 102.432 207.213 101.832 207.933 101.384C208.653 100.936 209.461 100.712 210.357 100.712C211.621 100.712 212.653 101.104 213.453 101.888C214.269 102.672 214.677 103.704 214.677 104.984V113H212.637V105.368C212.637 104.536 212.389 103.864 211.893 103.352C211.397 102.824 210.733 102.56 209.901 102.56C208.765 102.56 207.861 103.024 207.189 103.952C206.533 104.864 206.205 106.112 206.205 107.696V113H204.165V100.904ZM217.593 100.904H219.633V103.184C220.065 102.432 220.641 101.832 221.361 101.384C222.081 100.936 222.889 100.712 223.785 100.712C225.049 100.712 226.081 101.104 226.881 101.888C227.697 102.672 228.105 103.704 228.105 104.984V113H226.065V105.368C226.065 104.536 225.817 103.864 225.321 103.352C224.825 102.824 224.161 102.56 223.329 102.56C222.193 102.56 221.289 103.024 220.617 103.952C219.961 104.864 219.633 106.112 219.633 107.696V113H217.593V100.904ZM241.416 113H239.376V110.72C238.944 111.472 238.368 112.072 237.648 112.52C236.928 112.968 236.12 113.192 235.224 113.192C233.96 113.192 232.92 112.8 232.104 112.016C231.304 111.232 230.904 110.2 230.904 108.92V100.904H232.944V108.536C232.944 109.368 233.192 110.048 233.688 110.576C234.184 111.088 234.848 111.344 235.68 111.344C236.816 111.344 237.712 110.888 238.368 109.976C239.04 109.048 239.376 107.792 239.376 106.208V100.904H241.416V113ZM249.78 113.192C248.596 113.192 247.532 112.928 246.588 112.4C245.66 111.856 244.932 111.112 244.404 110.168C243.892 109.224 243.636 108.152 243.636 106.952C243.636 105.752 243.892 104.68 244.404 103.736C244.932 102.792 245.66 102.056 246.588 101.528C247.532 100.984 248.596 100.712 249.78 100.712C250.964 100.712 252.02 100.984 252.948 101.528C253.892 102.056 254.628 102.792 255.156 103.736C255.684 104.68 255.948 105.752 255.948 106.952C255.948 108.152 255.684 109.224 255.156 110.168C254.628 111.112 253.892 111.856 252.948 112.4C252.02 112.928 250.964 113.192 249.78 113.192ZM245.724 106.952C245.724 108.248 246.1 109.312 246.852 110.144C247.604 110.96 248.58 111.368 249.78 111.368C250.98 111.368 251.956 110.96 252.708 110.144C253.46 109.312 253.836 108.248 253.836 106.952C253.836 105.656 253.46 104.6 252.708 103.784C251.956 102.952 250.98 102.536 249.78 102.536C248.58 102.536 247.604 102.952 246.852 103.784C246.1 104.6 245.724 105.656 245.724 106.952Z" fill="white"/>
<path d="M160.403 42.488H148.563V54.328H140.563V42.424H128.659V34.488H140.563V22.584H148.499V34.488H160.403V42.488ZM180.251 59.512C177.136 59.512 174.341 58.9573 171.867 57.848C169.392 56.7387 167.387 55.1813 165.851 53.176C164.315 51.1707 163.419 48.8453 163.163 46.2L172.315 44.664C172.656 46.5413 173.552 48.0347 175.003 49.144C176.453 50.2533 178.224 50.808 180.315 50.808C182.448 50.808 184.176 50.2107 185.499 49.016C186.864 47.8213 187.547 46.2427 187.547 44.28C187.547 42.3173 186.885 40.7387 185.563 39.544C184.283 38.3493 182.576 37.752 180.443 37.752C179.675 37.752 178.8 37.9013 177.819 38.2C176.88 38.456 176.048 38.8187 175.323 39.288L171.483 32.632L182.811 22.84H164.443V14.2H194.715V22.264L183.835 31.416C186.565 31.3733 188.976 31.8853 191.067 32.952C193.157 34.0187 194.779 35.5547 195.931 37.56C197.083 39.5227 197.659 41.8693 197.659 44.6C197.659 47.544 196.933 50.1467 195.483 52.408C194.032 54.6693 191.984 56.4187 189.339 57.656C186.736 58.8933 183.707 59.512 180.251 59.512ZM234.854 14.2H242.278L212.326 59H204.902L234.854 14.2ZM236.582 59.512C233.382 59.512 230.822 58.488 228.902 56.44C227.025 54.392 226.086 51.6613 226.086 48.248C226.086 44.8347 227.025 42.104 228.902 40.056C230.822 38.008 233.382 36.984 236.582 36.984C239.739 36.984 242.257 38.008 244.134 40.056C246.054 42.104 247.014 44.8347 247.014 48.248C247.014 51.6613 246.054 54.392 244.134 56.44C242.257 58.488 239.739 59.512 236.582 59.512ZM232.998 48.248C232.998 49.8693 233.297 51.128 233.894 52.024C234.534 52.8773 235.43 53.304 236.582 53.304C237.691 53.304 238.545 52.8773 239.142 52.024C239.739 51.128 240.038 49.8693 240.038 48.248C240.038 46.6267 239.739 45.3893 239.142 44.536C238.545 43.64 237.691 43.192 236.582 43.192C235.43 43.192 234.534 43.64 233.894 44.536C233.297 45.3893 232.998 46.6267 232.998 48.248ZM210.79 36.216C207.59 36.216 205.03 35.192 203.11 33.144C201.233 31.096 200.294 28.3653 200.294 24.952C200.294 21.5387 201.233 18.808 203.11 16.76C205.03 14.712 207.59 13.688 210.79 13.688C213.947 13.688 216.465 14.712 218.342 16.76C220.262 18.808 221.222 21.5387 221.222 24.952C221.222 28.3653 220.262 31.096 218.342 33.144C216.465 35.192 213.947 36.216 210.79 36.216ZM207.206 24.952C207.206 26.5733 207.505 27.832 208.102 28.728C208.742 29.5813 209.638 30.008 210.79 30.008C211.899 30.008 212.753 29.5813 213.35 28.728C213.947 27.832 214.246 26.5733 214.246 24.952C214.246 23.3307 213.947 22.0933 213.35 21.24C212.753 20.344 211.899 19.896 210.79 19.896C209.638 19.896 208.742 20.344 208.102 21.24C207.505 22.0933 207.206 23.3307 207.206 24.952Z" fill="white"/>
</svg>
