<svg width="85" height="21" viewBox="0 0 85 21" fill="none" xmlns="http://www.w3.org/2000/svg">
<g clip-path="url(#clip0_3512_867)">
<path d="M22.3384 7.46094H30.9376V9.06177H27.5517V18.0859H25.6959V9.06177H22.3242L22.3384 7.46094ZM30.5692 10.3934H32.1559V11.8809H32.1842C32.2409 11.6684 32.3401 11.4701 32.4817 11.2718C32.6234 11.0734 32.7934 10.8893 33.0059 10.7334C33.2042 10.5634 33.4309 10.4359 33.6859 10.3368C33.9267 10.2376 34.1817 10.1809 34.4367 10.1809C34.6351 10.1809 34.7767 10.1951 34.8476 10.1951C34.9184 10.2093 35.0034 10.2234 35.0742 10.2234V11.8526C34.9609 11.8243 34.8334 11.8101 34.7059 11.7959C34.5784 11.7818 34.4651 11.7676 34.3376 11.7676C34.0542 11.7676 33.7851 11.8243 33.5301 11.9376C33.2751 12.0509 33.0626 12.2209 32.8642 12.4334C32.6801 12.6601 32.5242 12.9293 32.4109 13.2551C32.2976 13.5809 32.2409 13.9634 32.2409 14.3884V18.0434H30.5409L30.5692 10.3934ZM42.8659 18.0859H41.1942V17.0093H41.1659C40.9534 17.4059 40.6417 17.7034 40.2309 17.9443C39.8201 18.1851 39.3951 18.2984 38.9701 18.2984C37.9642 18.2984 37.2276 18.0576 36.7742 17.5476C36.3209 17.0518 36.0942 16.2868 36.0942 15.2809V10.3934H37.7942V15.1109C37.7942 15.7909 37.9217 16.2726 38.1909 16.5418C38.4459 16.8251 38.8142 16.9668 39.2817 16.9668C39.6359 16.9668 39.9334 16.9101 40.1742 16.7968C40.4151 16.6834 40.6134 16.5418 40.7551 16.3576C40.9109 16.1734 41.0101 15.9468 41.0809 15.6918C41.1517 15.4368 41.1801 15.1534 41.1801 14.8559V10.3934H42.8801V18.0859H42.8659ZM45.7559 15.6209C45.8126 16.1168 45.9967 16.4568 46.3226 16.6693C46.6484 16.8676 47.045 16.9668 47.4984 16.9668C47.6542 16.9668 47.8384 16.9526 48.0367 16.9243C48.2351 16.8959 48.4334 16.8534 48.6034 16.7826C48.7876 16.7118 48.9292 16.6126 49.0426 16.4709C49.1559 16.3293 49.2125 16.1593 49.1984 15.9468C49.1842 15.7343 49.1134 15.5501 48.9576 15.4084C48.8017 15.2668 48.6176 15.1676 48.3909 15.0684C48.1642 14.9834 47.8951 14.9126 47.5976 14.8559C47.3001 14.7993 47.0026 14.7284 46.6909 14.6576C46.3792 14.5868 46.0676 14.5018 45.7701 14.4026C45.4726 14.3034 45.2176 14.1759 44.9767 13.9918C44.7501 13.8218 44.5517 13.6093 44.4242 13.3401C44.2826 13.0709 44.2117 12.7593 44.2117 12.3626C44.2117 11.9376 44.3109 11.5976 44.5234 11.3143C44.7217 11.0309 44.9909 10.8043 45.3025 10.6343C45.6142 10.4643 45.9684 10.3368 46.3509 10.2659C46.7334 10.1951 47.1017 10.1668 47.4417 10.1668C47.8384 10.1668 48.2209 10.2093 48.5751 10.2943C48.9292 10.3793 49.2692 10.5068 49.5525 10.7051C49.85 10.8893 50.0909 11.1443 50.275 11.4418C50.4734 11.7393 50.5867 12.1076 50.6434 12.5326H48.8726C48.7876 12.1218 48.6034 11.8526 48.3201 11.7109C48.0226 11.5693 47.6967 11.4984 47.3142 11.4984C47.2009 11.4984 47.0451 11.5126 46.8892 11.5268C46.7192 11.5551 46.5776 11.5834 46.4217 11.6401C46.2801 11.6968 46.1526 11.7818 46.0534 11.8809C45.9542 11.9801 45.8976 12.1218 45.8976 12.2918C45.8976 12.5043 45.9684 12.6601 46.1101 12.7876C46.2517 12.9151 46.4359 13.0143 46.6767 13.1134C46.9034 13.1984 47.1726 13.2693 47.4701 13.3259C47.7676 13.3826 48.0792 13.4534 48.3909 13.5243C48.7026 13.5951 49.0001 13.6801 49.2976 13.7793C49.5951 13.8784 49.8642 14.0059 50.0909 14.1901C50.3176 14.3601 50.5159 14.5726 50.6576 14.8276C50.7992 15.0826 50.8701 15.4084 50.8701 15.7768C50.8701 16.2301 50.7709 16.6126 50.5584 16.9384C50.3459 17.2501 50.0767 17.5193 49.7509 17.7176C49.4251 17.9159 49.0426 18.0576 48.6459 18.1568C48.2351 18.2418 47.8384 18.2984 47.4417 18.2984C46.9601 18.2984 46.5067 18.2418 46.0959 18.1284C45.6851 18.0151 45.3167 17.8451 45.0192 17.6326C44.7217 17.4059 44.4809 17.1368 44.3109 16.7968C44.1409 16.4709 44.0417 16.0743 44.0275 15.6068H45.7417V15.6209H45.7559ZM51.3517 10.3934H52.6409V8.0701H54.3409V10.3793H55.8709V11.6401H54.3409V15.7484C54.3409 15.9326 54.355 16.0743 54.3692 16.2159C54.3834 16.3434 54.4259 16.4568 54.4684 16.5418C54.5251 16.6268 54.6101 16.6976 54.7092 16.7401C54.8226 16.7826 54.9642 16.8109 55.1626 16.8109C55.2759 16.8109 55.4034 16.8109 55.5167 16.7968C55.6301 16.7826 55.7575 16.7684 55.8709 16.7401V18.0576C55.6867 18.0859 55.5026 18.1001 55.3184 18.1143C55.1342 18.1426 54.9642 18.1426 54.7659 18.1426C54.3126 18.1426 53.9584 18.1001 53.6892 18.0151C53.4201 17.9301 53.2076 17.8026 53.0517 17.6468C52.8959 17.4768 52.7967 17.2784 52.74 17.0376C52.6834 16.7968 52.6551 16.4993 52.6409 16.1876V11.6543H51.3517V10.3651V10.3934ZM57.0609 10.3934H58.6617V11.4418H58.69C58.9309 10.9884 59.2567 10.6768 59.6817 10.4784C60.1067 10.2801 60.5601 10.1809 61.0701 10.1809C61.6792 10.1809 62.2034 10.2801 62.6567 10.5068C63.1101 10.7193 63.4784 11.0026 63.7759 11.3851C64.0734 11.7534 64.3 12.1926 64.4417 12.6884C64.5834 13.1843 64.6684 13.7226 64.6684 14.2751C64.6684 14.8276 64.5976 15.2951 64.4701 15.7768C64.3284 16.2584 64.1301 16.6976 63.8609 17.0659C63.5917 17.4343 63.2517 17.7318 62.8267 17.9584C62.4017 18.1851 61.9201 18.2984 61.3534 18.2984C61.1126 18.2984 60.8576 18.2701 60.6167 18.2276C60.3759 18.1851 60.1351 18.1143 59.9084 18.0151C59.6817 17.9159 59.4692 17.7884 59.285 17.6326C59.0867 17.4768 58.9309 17.2926 58.8034 17.0943H58.7751V20.9334H57.0751V10.3934H57.0609ZM62.9967 14.2468C62.9967 13.9068 62.9542 13.5668 62.8551 13.2409C62.7701 12.9151 62.6284 12.6318 62.4442 12.3768C62.26 12.1218 62.0334 11.9234 61.7784 11.7676C61.5092 11.6118 61.1976 11.5409 60.8576 11.5409C60.1492 11.5409 59.6109 11.7818 59.2426 12.2776C58.8884 12.7734 58.7042 13.4393 58.7042 14.2609C58.7042 14.6576 58.7467 15.0118 58.8459 15.3376C58.945 15.6634 59.0726 15.9468 59.2709 16.1876C59.4551 16.4284 59.6817 16.6126 59.9509 16.7543C60.2201 16.8959 60.5176 16.9668 60.8717 16.9668C61.2684 16.9668 61.5801 16.8818 61.8492 16.7259C62.1184 16.5701 62.3309 16.3576 62.515 16.1168C62.6851 15.8618 62.8125 15.5784 62.8834 15.2526C62.9542 14.9126 62.9967 14.5868 62.9967 14.2468ZM65.9859 7.46094H67.6859V9.06177H65.9859V7.46094ZM65.9859 10.3934H67.6859V18.0859H65.9859V10.3934ZM69.2017 7.46094H70.9017V18.0859H69.2017V7.46094ZM76.0867 18.2984C75.4775 18.2984 74.9251 18.1993 74.4434 17.9868C73.9617 17.7743 73.5651 17.5051 73.2251 17.1509C72.8992 16.7968 72.6442 16.3576 72.4742 15.8618C72.3042 15.3659 72.2051 14.8134 72.2051 14.2326C72.2051 13.6518 72.2901 13.1134 72.4742 12.6176C72.6442 12.1218 72.8992 11.6968 73.2251 11.3284C73.5509 10.9743 73.9617 10.6909 74.4434 10.4926C74.9251 10.2943 75.4775 10.1809 76.0867 10.1809C76.6959 10.1809 77.2484 10.2801 77.7301 10.4926C78.2117 10.6909 78.6084 10.9743 78.9484 11.3284C79.2742 11.6826 79.5292 12.1218 79.6992 12.6176C79.8692 13.1134 79.9684 13.6518 79.9684 14.2326C79.9684 14.8134 79.8834 15.3659 79.6992 15.8618C79.515 16.3576 79.2742 16.7826 78.9484 17.1509C78.6226 17.5051 78.2117 17.7884 77.7301 17.9868C77.2484 18.1851 76.71 18.2984 76.0867 18.2984ZM76.0867 16.9526C76.455 16.9526 76.7951 16.8676 77.0642 16.7118C77.3475 16.5559 77.5601 16.3434 77.7442 16.0884C77.9284 15.8334 78.0559 15.5359 78.1409 15.2243C78.2259 14.8984 78.2684 14.5726 78.2684 14.2326C78.2684 13.8926 78.2259 13.5809 78.1409 13.2551C78.0559 12.9293 77.9284 12.6459 77.7442 12.3909C77.5601 12.1359 77.3334 11.9376 77.0642 11.7818C76.7809 11.6259 76.455 11.5409 76.0867 11.5409C75.7184 11.5409 75.3784 11.6259 75.1092 11.7818C74.8259 11.9376 74.6134 12.1501 74.4292 12.3909C74.2451 12.6459 74.1175 12.9293 74.0325 13.2551C73.9475 13.5809 73.9051 13.9068 73.9051 14.2326C73.9051 14.5584 73.9475 14.8984 74.0325 15.2243C74.1175 15.5501 74.2451 15.8334 74.4292 16.0884C74.6134 16.3434 74.8401 16.5559 75.1092 16.7118C75.3926 16.8818 75.7184 16.9526 76.0867 16.9526ZM80.4784 10.3934H81.7676V8.0701H83.4676V10.3793H84.9976V11.6401H83.4676V15.7484C83.4676 15.9326 83.4817 16.0743 83.4959 16.2159C83.5101 16.3434 83.5525 16.4568 83.595 16.5418C83.6517 16.6268 83.7367 16.6976 83.8359 16.7401C83.9492 16.7826 84.0909 16.8109 84.2892 16.8109C84.4025 16.8109 84.5301 16.8109 84.6434 16.7968C84.7567 16.7826 84.8842 16.7684 84.9976 16.7401V18.0576C84.8134 18.0859 84.6292 18.1001 84.445 18.1143C84.2609 18.1426 84.0909 18.1426 83.8926 18.1426C83.4392 18.1426 83.085 18.1001 82.8159 18.0151C82.5467 17.9301 82.3342 17.8026 82.1784 17.6468C82.0225 17.4768 81.9234 17.2784 81.8667 17.0376C81.8101 16.7968 81.7817 16.4993 81.7676 16.1876V11.6543H80.4784V10.3651V10.3934Z" fill="white"/>
<path d="M20.3575 7.46141H12.58L10.1858 0.0664062L7.7775 7.46141L0 7.44724L6.29 12.0231L3.88167 19.4181L10.1717 14.8422L16.4617 19.4181L14.0675 12.0231L20.3575 7.46141Z" fill="#00B67A"/>
<path d="M14.6036 13.6941L14.0653 12.0225L10.1836 14.8416L14.6036 13.6941Z" fill="#005128"/>
</g>
<defs>
<clipPath id="clip0_3512_867">
<rect width="85" height="20.8675" fill="white" transform="translate(0 0.0664062)"/>
</clipPath>
</defs>
</svg>
