<svg width="113" height="23" viewBox="0 0 113 23" fill="none" xmlns="http://www.w3.org/2000/svg">
<path d="M21.2975 0.900391L0.177734 0.900391L0.177734 21.9176H21.2975V0.900391Z" fill="#00B67A"/>
<path d="M44.1784 0.900391L23.0586 0.900391V21.9176H44.1784V0.900391Z" fill="#00B67A"/>
<path d="M67.0592 0.900391L45.9395 0.900391V21.9176H67.0592V0.900391Z" fill="#00B67A"/>
<path d="M89.9382 0.900391L68.8184 0.900391V21.9176H89.9382V0.900391Z" fill="#00B67A"/>
<path d="M112.821 0.900391L91.7012 0.900391V21.9176H112.821V0.900391Z" fill="#DCDCE6"/>
<path d="M102.283 0.901855L91.6836 0.901855V22.0998H102.283V0.901855Z" fill="#00B67A"/>
<path d="M10.7396 15.0653L13.9516 14.2553L15.2935 18.3711L10.7396 15.0653ZM18.1315 9.74534H12.4776L10.7396 4.44727L9.0016 9.74534H3.34766L7.92361 13.0293L6.18563 18.3274L10.7616 15.0434L13.5776 13.0293L18.1315 9.74534Z" fill="white"/>
<path d="M33.6204 15.0658L36.8324 14.2558L38.1744 18.3716L33.6204 15.0658ZM41.0124 9.74583H35.3584L33.6204 4.44775L31.8825 9.74583H26.2285L30.8045 13.0298L29.0665 18.3278L33.6424 15.0439L36.4584 13.0298L41.0124 9.74583Z" fill="white"/>
<path d="M56.4993 15.0653L59.7113 14.2553L61.0533 18.3711L56.4993 15.0653ZM63.8913 9.74534H58.2373L56.4993 4.44727L54.7614 9.74534H49.1074L53.6834 13.0293L51.9454 18.3274L56.5214 15.0434L59.3373 13.0293L63.8913 9.74534Z" fill="white"/>
<path d="M79.3802 15.0658L82.5922 14.2558L83.9342 18.3716L79.3802 15.0658ZM86.7721 9.74583H81.1182L79.3802 4.44775L77.6422 9.74583H71.9883L76.5642 13.0298L74.8263 18.3278L79.4022 15.0439L82.2182 13.0298L86.7721 9.74583Z" fill="white"/>
<path d="M102.257 15.0653L105.469 14.2553L106.811 18.3711L102.257 15.0653ZM109.649 9.74534H103.995L102.257 4.44727L100.519 9.74534H94.8652L99.4412 13.0293L97.7032 18.3274L102.279 15.0434L105.095 13.0293L109.649 9.74534Z" fill="white"/>
</svg>
