<svg width="29" height="28" viewBox="0 0 29 28" fill="none" xmlns="http://www.w3.org/2000/svg">
<path d="M14.4286 4.57185C16.2369 4.57185 18.0045 5.10807 19.5081 6.1127C21.0116 7.11733 22.1835 8.54525 22.8755 10.2159C23.5675 11.8865 23.7485 13.7248 23.3958 15.4984C23.043 17.2719 22.1722 18.901 20.8935 20.1797C19.6149 21.4583 17.9858 22.3291 16.2123 22.6819C14.4387 23.0347 12.6004 22.8536 10.9298 22.1616C9.25911 21.4696 7.83119 20.2977 6.82656 18.7942C5.82193 17.2907 5.28571 15.523 5.28571 13.7147C5.28571 11.2899 6.24898 8.96435 7.9636 7.24973C9.67821 5.53511 12.0037 4.57185 14.4286 4.57185V4.57185ZM14.4286 2.28613C11.3975 2.28613 8.49062 3.49021 6.34735 5.63348C4.20408 7.77676 3 10.6837 3 13.7147C3 16.7458 4.20408 19.6527 6.34735 21.7959C8.49062 23.9392 11.3975 25.1433 14.4286 25.1433V25.1433C17.4596 25.1433 20.3665 23.9392 22.5098 21.7959C24.6531 19.6527 25.8571 16.7458 25.8571 13.7147C25.8571 10.6837 24.6531 7.77676 22.5098 5.63348C20.3665 3.49021 17.4596 2.28613 14.4286 2.28613V2.28613Z" fill="white"/>
<path d="M18.4747 9.63525L14.429 13.681L11.949 11.2124L10.3262 12.8353L14.429 16.9267L16.0405 15.3038L16.8519 14.4924L17.6633 13.681L18.4747 12.8695L20.0976 11.2581L18.4747 9.63525Z" fill="white"/>
<path d="M11.994 16.1147L10.3711 17.7376L11.994 19.3605L13.6168 17.7376L11.994 16.1147Z" fill="white"/>
</svg>
